<?xml version="1.0" standalone="no"?>
<!DOCTYPE svg PUBLIC "-//W3C//DTD SVG 20010904//EN"
 "http://www.w3.org/TR/2001/REC-SVG-20010904/DTD/svg10.dtd">
<svg version="1.0" xmlns="http://www.w3.org/2000/svg"
 width="512.000000pt" height="512.000000pt" viewBox="0 0 512.000000 512.000000"
 preserveAspectRatio="xMidYMid meet">

<g transform="translate(0.000000,512.000000) scale(0.100000,-0.100000)"
fill="#000000" stroke="none">
<path d="M490 4977 c0 -79 3 -199 7 -265 l6 -122 2065 0 2065 0 -6 143 c-4 78
-7 197 -7 265 l0 122 -2065 0 -2065 0 0 -143z"/>
<path d="M520 4463 c0 -5 49 -91 108 -193 l108 -185 1191 -3 1190 -2 6 46 c6
55 31 93 78 116 30 16 71 18 387 18 308 0 358 -2 389 -16 44 -22 66 -55 73
-113 l5 -46 182 -3 183 -2 95 190 c52 104 95 192 95 195 0 3 -920 5 -2045 5
-1125 0 -2045 -3 -2045 -7z"/>
<path d="M3250 3815 l0 -315 340 0 340 0 0 315 0 315 -340 0 -340 0 0 -315z"/>
<path d="M760 3800 l0 -160 1180 0 1180 0 0 160 0 160 -1180 0 -1180 0 0 -160z"/>
<path d="M4050 3800 l0 -160 155 0 155 0 0 160 0 160 -155 0 -155 0 0 -160z"/>
<path d="M767 3513 c-4 -3 -7 -705 -7 -1559 l0 -1553 -109 -198 -110 -198
2011 -3 c1106 -1 2013 0 2016 2 4 5 -150 257 -176 289 -14 16 -102 17 -1574
17 l-1558 0 0 60 0 60 1550 0 1550 0 -2 1542 -3 1543 -150 0 -149 0 -7 -34
c-4 -18 -21 -48 -38 -65 l-31 -31 -381 -3 c-372 -3 -381 -2 -415 18 -24 15
-39 36 -51 71 l-18 49 -1171 0 c-644 0 -1174 -3 -1177 -7z m1608 -542 c117
-100 142 -117 155 -107 8 7 70 58 137 114 67 56 126 102 131 102 10 0 72 -75
72 -87 0 -4 -66 -62 -145 -128 l-145 -119 0 -331 0 -330 232 232 232 232 -17
192 c-9 106 -16 193 -14 194 1 1 28 5 59 9 67 7 61 22 79 -196 7 -81 15 -151
18 -156 3 -6 87 -17 185 -26 99 -9 181 -18 184 -21 9 -9 -10 -115 -21 -115 -7
0 -95 7 -196 16 l-183 17 -237 -237 -236 -236 332 0 332 0 126 150 126 150 44
-37 c25 -20 45 -40 45 -43 0 -3 -52 -67 -116 -143 l-115 -138 120 -142 120
-142 -45 -42 -46 -43 -130 155 -130 155 -329 0 c-181 0 -329 -4 -329 -8 0 -4
105 -111 233 -238 l232 -231 140 13 c77 7 165 15 197 19 l56 6 4 -60 c4 -72
21 -65 -197 -82 -82 -6 -154 -15 -158 -19 -4 -4 -15 -88 -24 -186 -8 -98 -17
-181 -19 -183 -2 -2 -28 0 -59 4 l-55 6 0 37 c0 20 7 109 15 197 l15 160 -235
235 -235 235 1 -335 0 -335 145 -120 c79 -66 144 -124 144 -130 -1 -5 -16 -28
-35 -49 -31 -35 -36 -37 -52 -25 -10 8 -74 60 -142 117 -108 90 -125 101 -140
89 -9 -7 -74 -62 -144 -121 l-129 -108 -29 33 c-54 63 -59 53 102 189 l149
125 0 335 0 335 -236 -236 -237 -237 17 -192 c10 -105 16 -194 14 -196 -2 -2
-29 -6 -60 -10 l-56 -6 -6 48 c-3 27 -11 110 -17 184 -6 74 -14 138 -17 141
-4 3 -74 12 -157 18 -221 18 -206 11 -199 79 4 31 7 58 8 59 1 1 88 -6 194
-15 l191 -18 238 238 238 238 -335 -2 -334 -3 -123 -145 c-67 -80 -128 -146
-135 -147 -7 -1 -31 13 -52 32 -35 31 -37 36 -25 52 8 10 60 73 116 140 57 66
103 126 103 132 0 7 -50 71 -110 143 -61 73 -109 136 -107 142 2 5 21 24 44
43 l40 33 124 -150 124 -150 335 0 335 0 -236 236 -236 236 -191 -17 c-106 -9
-196 -14 -202 -10 -5 3 -10 30 -10 60 l0 53 58 6 c31 3 113 11 182 17 69 6
126 12 128 14 2 1 10 84 19 184 l17 182 60 -7 c34 -4 62 -7 62 -8 1 0 -7 -86
-17 -191 l-18 -190 234 -235 235 -235 0 331 0 332 -150 126 -150 127 37 45
c21 24 40 44 43 44 3 0 68 -54 145 -119z"/>
</g>
</svg>
