<?xml version="1.0" standalone="no"?>
<!DOCTYPE svg PUBLIC "-//W3C//DTD SVG 20010904//EN"
 "http://www.w3.org/TR/2001/REC-SVG-20010904/DTD/svg10.dtd">
<svg version="1.0" xmlns="http://www.w3.org/2000/svg"
 width="512.000000pt" height="512.000000pt" viewBox="0 0 512.000000 512.000000"
 preserveAspectRatio="xMidYMid meet">

<g transform="translate(0.000000,512.000000) scale(0.100000,-0.100000)"
fill="#000000" stroke="none">
<path d="M4188 3884 l-288 -343 0 -52 c0 -151 110 -370 241 -481 l46 -39 462
108 c253 59 461 110 461 113 0 3 -81 54 -180 113 -99 60 -180 114 -180 120 0
7 20 73 44 147 l43 135 -163 5 c-89 3 -164 7 -167 10 -2 3 -10 117 -16 255 -7
137 -13 250 -14 251 -1 1 -131 -153 -289 -342z"/>
<path d="M2760 3620 c-115 -9 -220 -26 -231 -38 -4 -5 -624 -2021 -646 -2103
-4 -13 11 -19 74 -30 91 -16 367 -19 382 -4 8 9 673 2167 668 2171 -10 8 -164
10 -247 4z"/>
<path d="M3231 3557 c-104 -328 -631 -2070 -628 -2073 13 -13 296 76 391 122
l39 19 279 909 c209 686 275 912 265 918 -38 26 -183 89 -254 111 l-82 25 -10
-31z"/>
<path d="M2190 3494 c-115 -43 -352 -166 -361 -188 -21 -49 -479 -1562 -477
-1575 5 -23 135 -118 223 -162 73 -37 80 -39 87 -22 19 45 599 1956 596 1963
-2 4 -32 -3 -68 -16z"/>
<path d="M3746 3169 c-133 -429 -416 -1361 -416 -1370 0 -18 162 113 260 211
161 161 289 368 342 555 19 67 23 104 23 230 0 138 -2 156 -28 230 -27 75 -82
179 -126 234 l-19 25 -36 -115z"/>
<path d="M1445 2998 c-223 -245 -340 -533 -322 -788 7 -90 49 -247 60 -220 16
41 326 1064 323 1067 -2 2 -29 -24 -61 -59z"/>
<path d="M423 2052 c-227 -9 -413 -18 -413 -21 1 -3 86 -78 190 -166 104 -88
187 -166 185 -172 -3 -7 -45 -67 -95 -133 -50 -66 -89 -124 -86 -129 3 -4 66
-30 141 -56 95 -35 135 -53 135 -64 0 -9 -11 -106 -24 -216 -14 -110 -24 -201
-23 -202 1 -1 168 132 370 294 l367 297 0 65 c0 125 -55 278 -144 399 -52 71
-122 123 -163 120 -15 0 -214 -8 -440 -16z"/>
</g>
</svg>
