<?xml version="1.0" standalone="no"?>
<!DOCTYPE svg PUBLIC "-//W3C//DTD SVG 20010904//EN"
 "http://www.w3.org/TR/2001/REC-SVG-20010904/DTD/svg10.dtd">
<svg version="1.0" xmlns="http://www.w3.org/2000/svg"
 width="512.000000pt" height="512.000000pt" viewBox="0 0 512.000000 512.000000"
 preserveAspectRatio="xMidYMid meet">

<g transform="translate(0.000000,512.000000) scale(0.100000,-0.100000)"
fill="#000000" stroke="none">
<path d="M2522 4770 c-44 -18 -52 -62 -52 -290 0 -161 3 -219 15 -245 28 -68
115 -70 147 -5 15 30 18 65 18 248 0 234 -7 274 -55 292 -31 12 -42 12 -73 0z"/>
<path d="M1905 4665 c-41 -40 -33 -70 70 -274 96 -191 112 -211 166 -211 27 0
79 53 79 79 0 31 -196 417 -215 425 -35 13 -76 6 -100 -19z"/>
<path d="M3109 4677 c-22 -17 -209 -391 -209 -418 0 -26 52 -79 79 -79 54 0
70 20 166 211 59 117 95 200 95 219 0 62 -83 104 -131 67z"/>
<path d="M1659 3901 c-63 -13 -126 -58 -169 -121 -44 -65 -61 -74 -123 -65
-112 17 -215 -88 -193 -197 10 -48 45 -97 85 -117 20 -10 82 -28 139 -39 121
-24 159 -44 189 -98 27 -46 29 -100 8 -194 -23 -103 -20 -145 11 -169 36 -28
85 -27 111 2 12 12 30 60 42 107 14 55 31 97 50 120 142 177 405 116 451 -105
10 -46 6 -75 -35 -283 -25 -128 -45 -241 -45 -253 0 -30 53 -79 85 -79 16 0
38 11 54 28 25 25 32 51 80 300 57 293 67 319 131 356 26 15 59 22 125 26 105
6 142 26 175 90 65 128 -49 273 -190 241 -56 -12 -96 2 -116 43 -36 70 -81
101 -163 112 -46 6 -56 12 -92 55 -54 64 -111 87 -177 70 -97 -25 -99 -25
-129 7 -15 16 -46 51 -67 77 -58 70 -150 103 -237 86z"/>
<path d="M3162 3405 c-19 -8 -47 -26 -64 -40 -16 -14 -40 -25 -52 -25 -22 0
-24 -5 -28 -73 -5 -78 -38 -159 -84 -208 l-25 -26 20 -34 c28 -46 27 -89 -9
-263 -24 -122 -28 -155 -20 -196 5 -28 14 -59 20 -69 14 -27 65 -43 97 -30 49
18 54 34 47 155 -5 97 -4 117 13 155 29 65 71 109 128 135 125 59 280 3 339
-120 10 -21 35 -144 56 -280 36 -224 41 -243 65 -263 54 -47 135 -11 135 59 0
18 -18 146 -40 283 -22 138 -40 264 -40 280 0 63 79 155 133 155 40 0 102 39
130 82 97 150 -70 319 -233 234 -52 -27 -104 -34 -116 -15 -3 6 -27 24 -52 40
-49 31 -115 39 -168 19 -22 -9 -38 -5 -98 25 -78 38 -104 42 -154 20z"/>
<path d="M1105 3228 c-12 -35 -375 -1918 -375 -1945 0 -64 43 -130 99 -152 14
-6 163 -38 331 -70 168 -33 480 -94 693 -136 336 -65 394 -74 427 -65 53 14
96 52 114 103 16 45 390 1947 383 1953 -8 8 -152 32 -158 26 -3 -4 -29 -123
-57 -265 -28 -141 -58 -272 -67 -291 -9 -19 -36 -54 -59 -78 l-43 -43 -112
-575 c-78 -401 -117 -583 -130 -600 -33 -46 -112 -39 -137 13 -14 31 -10 57
90 571 59 297 106 547 106 556 0 9 -15 21 -36 29 -48 17 -110 75 -136 124 -35
70 -33 123 16 371 41 207 44 232 32 261 -25 59 -105 66 -140 13 -9 -13 -22
-53 -29 -88 -16 -78 -36 -117 -78 -159 -44 -45 -83 -62 -150 -68 -78 -8 -140
11 -193 58 -85 75 -104 161 -70 324 9 42 14 78 12 81 -5 5 -295 64 -315 64 -7
0 -16 -6 -18 -12z m264 -563 c31 -16 41 -33 41 -73 0 -15 -56 -312 -125 -661
-85 -437 -129 -639 -141 -652 -24 -26 -67 -33 -102 -15 -32 17 -42 34 -42 74
0 15 56 313 125 662 117 597 126 636 150 658 30 26 55 28 94 7z m508 -100 c48
-33 48 -31 -87 -718 -139 -713 -133 -691 -206 -691 -41 0 -84 39 -84 76 0 26
238 1243 251 1285 18 58 79 81 126 48z"/>
<path d="M505 3141 c-58 -26 -101 -65 -124 -114 -30 -64 -214 -1009 -207
-1069 9 -82 66 -163 141 -201 26 -13 268 -67 301 -67 11 0 21 32 39 130 l6 35
-73 14 c-100 17 -139 30 -165 50 -37 31 -63 83 -63 130 0 57 147 807 165 842
19 36 59 66 106 80 30 10 56 8 131 -6 51 -10 97 -18 102 -19 5 0 17 36 26 82
17 82 17 82 -4 87 -236 50 -317 55 -381 26z"/>
<path d="M3960 2846 c-77 -14 -74 24 -24 -296 40 -250 40 -311 4 -382 l-23
-48 92 -585 c51 -322 89 -594 86 -605 -19 -60 -96 -80 -140 -35 -14 13 -25 29
-25 36 0 6 -38 253 -85 549 -47 296 -85 540 -85 543 0 2 -25 7 -56 11 -100 12
-186 71 -221 154 -7 18 -29 132 -49 255 -19 122 -37 230 -40 239 -8 27 -54 58
-86 58 -17 0 -39 -10 -54 -25 -24 -24 -24 -26 -18 -137 6 -100 4 -119 -13
-158 -58 -131 -220 -193 -341 -131 -32 16 -43 18 -46 9 -11 -35 -226 -1156
-226 -1178 0 -14 16 -128 36 -255 39 -248 53 -291 109 -324 16 -11 44 -22 60
-25 40 -8 1416 209 1461 230 39 19 72 60 85 108 7 26 -24 241 -146 1015 -85
541 -155 984 -155 987 0 6 -25 3 -100 -10z m-596 -648 c25 -22 30 -49 126
-657 55 -349 100 -650 100 -668 0 -72 -81 -107 -135 -60 -26 22 -29 40 -130
677 -69 440 -100 661 -95 676 21 53 91 70 134 32z m-406 -691 c19 -20 30 -73
77 -370 30 -191 55 -351 55 -356 0 -5 -12 -23 -26 -40 -37 -45 -107 -41 -133
8 -11 19 -112 644 -114 698 -2 73 92 112 141 60z"/>
<path d="M4435 2749 c-27 -5 -80 -14 -116 -20 l-65 -10 12 -81 c8 -44 15 -82
16 -84 2 -2 48 4 102 13 77 12 107 13 136 4 47 -14 86 -44 105 -81 8 -16 44
-213 80 -438 71 -450 71 -452 14 -517 -34 -38 -61 -49 -169 -65 -41 -6 -80
-13 -86 -15 -8 -2 -8 -24 2 -81 7 -42 16 -79 18 -82 7 -7 221 26 285 44 94 27
181 139 181 233 0 50 -151 986 -165 1026 -36 99 -133 166 -239 164 -34 -1 -83
-5 -111 -10z"/>
</g>
</svg>
