<?xml version="1.0" standalone="no"?>
<!DOCTYPE svg PUBLIC "-//W3C//DTD SVG 20010904//EN"
 "http://www.w3.org/TR/2001/REC-SVG-20010904/DTD/svg10.dtd">
<svg version="1.0" xmlns="http://www.w3.org/2000/svg"
 width="512.000000pt" height="512.000000pt" viewBox="0 0 512.000000 512.000000"
 preserveAspectRatio="xMidYMid meet">

<g transform="translate(0.000000,512.000000) scale(0.100000,-0.100000)"
fill="#000000" stroke="none">
<path d="M2240 4670 c-34 -16 -191 -167 -635 -610 l-590 -589 -275 -3 c-272
-3 -276 -3 -330 -29 -80 -37 -125 -81 -162 -157 l-33 -67 0 -175 0 -175 33
-67 c37 -76 82 -120 162 -157 l55 -26 2069 -3 c1804 -2 2077 0 2128 13 104 26
168 81 217 185 25 53 26 63 26 230 0 167 -1 177 -26 230 -49 103 -113 158
-216 185 -43 11 -118 15 -308 15 l-250 0 -590 590 c-656 656 -631 636 -754
628 -74 -4 -124 -25 -170 -70 l-31 -30 -31 30 c-48 47 -96 66 -174 69 -55 3
-80 -1 -115 -17z m720 -805 l395 -395 -795 0 -795 0 395 395 c217 217 397 395
400 395 3 0 183 -178 400 -395z"/>
<path d="M580 2392 c0 -43 233 -1617 243 -1648 59 -166 175 -282 341 -343 l71
-26 1320 0 1320 0 70 22 c164 52 292 178 352 347 10 31 243 1605 243 1648 0 4
-891 8 -1980 8 -1089 0 -1980 -4 -1980 -8z m1284 -433 c13 -6 32 -25 41 -43
14 -28 16 -83 13 -543 l-3 -513 -28 -27 c-27 -28 -30 -28 -166 -31 -160 -4
-193 6 -217 63 -21 50 -21 989 0 1039 25 60 44 66 198 66 80 0 147 -5 162 -11z
m877 -18 l29 -29 0 -516 c0 -349 -3 -523 -11 -539 -21 -47 -56 -57 -199 -57
-143 0 -178 10 -199 57 -8 16 -11 190 -11 539 l0 516 29 29 29 29 152 0 152 0
29 -29z m838 13 c50 -35 51 -48 51 -569 0 -535 0 -539 -60 -570 -26 -14 -57
-16 -171 -13 -136 3 -139 3 -166 31 l-28 27 -3 513 c-3 461 -1 515 13 543 10
18 27 37 38 42 12 6 85 11 162 11 115 1 145 -2 164 -15z"/>
</g>
</svg>
