<?xml version="1.0" standalone="no"?>
<!DOCTYPE svg PUBLIC "-//W3C//DTD SVG 20010904//EN"
 "http://www.w3.org/TR/2001/REC-SVG-20010904/DTD/svg10.dtd">
<svg version="1.0" xmlns="http://www.w3.org/2000/svg"
 width="512.000000pt" height="512.000000pt" viewBox="0 0 512.000000 512.000000"
 preserveAspectRatio="xMidYMid meet">

<g transform="translate(0.000000,512.000000) scale(0.100000,-0.100000)"
fill="#000000" stroke="none">
<path d="M3505 5095 c-25 -24 -25 -26 -25 -215 0 -189 0 -191 25 -215 l24 -25
351 0 351 0 24 25 c25 24 25 26 25 215 0 189 0 191 -25 215 l-24 25 -351 0
-351 0 -24 -25z"/>
<path d="M3560 4360 l0 -120 320 0 320 0 0 120 0 120 -320 0 -320 0 0 -120z"/>
<path d="M3560 3881 l0 -199 -52 -17 c-29 -10 -93 -38 -143 -63 -75 -38 -107
-63 -190 -146 -142 -144 -216 -286 -245 -472 -7 -47 -10 -520 -8 -1476 3
-1403 3 -1407 24 -1434 11 -15 33 -37 48 -48 27 -21 34 -21 886 -21 852 0 859
0 886 21 15 11 37 33 48 48 21 27 21 31 24 1434 2 956 -1 1429 -8 1476 -29
186 -103 328 -245 472 -83 83 -115 108 -190 146 -49 25 -114 53 -142 63 l-53
17 0 199 0 199 -320 0 -320 0 0 -199z m455 -472 c63 -30 123 -90 155 -154 35
-71 35 -197 0 -270 -31 -64 -91 -124 -155 -155 -73 -35 -199 -35 -270 0 -64
31 -124 91 -155 155 -20 41 -25 65 -24 135 0 72 4 93 26 136 15 28 38 64 52
81 27 32 112 82 160 94 55 14 157 4 211 -22z m480 -874 c16 -15 25 -36 25 -55
0 -19 -9 -40 -25 -55 l-24 -25 -591 0 -591 0 -24 25 c-16 15 -25 36 -25 55 0
19 9 40 25 55 l24 25 591 0 591 0 24 -25z m-240 -320 c16 -15 25 -36 25 -55 0
-19 -9 -40 -25 -55 l-24 -25 -351 0 -351 0 -24 25 c-16 15 -25 36 -25 55 0 19
9 40 25 55 l24 25 351 0 351 0 24 -25z"/>
<path d="M3815 3266 c-101 -44 -125 -178 -46 -257 112 -113 296 -12 267 146
-18 94 -131 151 -221 111z"/>
<path d="M840 3356 c0 -2 25 -175 55 -384 35 -240 62 -401 76 -436 41 -112
143 -215 258 -263 58 -23 79 -27 171 -27 85 0 116 5 163 23 116 45 224 153
266 265 12 33 40 193 71 412 28 198 53 371 56 387 l6 27 -561 0 c-309 0 -561
-2 -561 -4z"/>
<path d="M983 2213 c3 -16 9 -125 13 -241 l7 -212 397 0 397 0 7 218 c4 119
10 227 13 240 5 21 -3 18 -68 -27 -41 -27 -110 -62 -154 -77 -69 -24 -95 -28
-195 -28 -100 0 -126 4 -195 28 -44 15 -113 50 -154 77 l-74 50 6 -28z"/>
<path d="M280 1596 c0 -2 25 -175 55 -384 35 -240 62 -401 76 -436 41 -112
143 -215 258 -263 58 -23 79 -27 171 -27 85 0 116 5 163 23 116 45 224 153
266 265 12 33 40 193 71 412 28 198 53 371 56 387 l6 27 -561 0 c-309 0 -561
-2 -561 -4z"/>
<path d="M1560 1596 c0 -2 25 -175 55 -384 35 -240 62 -401 76 -436 41 -112
143 -215 258 -263 58 -23 79 -27 171 -27 85 0 116 5 163 23 116 45 224 153
266 265 12 33 40 193 71 412 28 198 53 371 56 387 l6 27 -561 0 c-309 0 -561
-2 -561 -4z"/>
<path d="M423 453 c3 -16 9 -125 13 -241 l7 -212 397 0 397 0 7 218 c4 119 10
227 13 240 5 21 -3 18 -68 -27 -41 -27 -110 -62 -154 -77 -69 -24 -95 -28
-195 -28 -100 0 -126 4 -195 28 -44 15 -113 50 -154 77 l-74 50 6 -28z"/>
<path d="M1703 453 c3 -16 9 -125 13 -241 l7 -212 397 0 397 0 7 218 c4 119
10 227 13 240 5 21 -3 18 -68 -27 -41 -27 -110 -62 -154 -77 -69 -24 -95 -28
-195 -28 -100 0 -126 4 -195 28 -44 15 -113 50 -154 77 l-74 50 6 -28z"/>
</g>
</svg>
