<?xml version="1.0" standalone="no"?>
<!DOCTYPE svg PUBLIC "-//W3C//DTD SVG 20010904//EN"
 "http://www.w3.org/TR/2001/REC-SVG-20010904/DTD/svg10.dtd">
<svg version="1.0" xmlns="http://www.w3.org/2000/svg"
 width="512.000000pt" height="512.000000pt" viewBox="0 0 512.000000 512.000000"
 preserveAspectRatio="xMidYMid meet">

<g transform="translate(0.000000,512.000000) scale(0.100000,-0.100000)"
fill="#000000" stroke="none">
<path d="M2110 4820 l0 -300 450 0 450 0 0 300 0 300 -450 0 -450 0 0 -300z"/>
<path d="M2110 3861 c0 -355 0 -360 -21 -366 -48 -16 -200 -130 -275 -207
-208 -214 -304 -457 -304 -765 l0 -113 313 0 312 0 24 53 c30 64 128 163 194
196 138 67 275 67 414 0 65 -31 164 -132 194 -196 l24 -53 314 0 314 0 -6 153
c-8 236 -63 412 -186 590 -88 127 -276 294 -381 337 l-30 12 0 359 0 359 -450
0 -450 0 0 -359z"/>
<path d="M2486 2386 c-59 -36 -75 -74 -76 -183 l0 -93 -450 0 -450 0 0 -450 0
-450 1050 0 1050 0 0 450 0 450 -450 0 -450 0 0 90 c0 112 -20 159 -80 190
-52 26 -96 25 -144 -4z m524 -726 l0 -150 -450 0 -450 0 0 150 0 150 450 0
450 0 0 -150z"/>
<path d="M1510 455 l0 -455 1050 0 1050 0 0 455 0 455 -1050 0 -1050 0 0 -455z"/>
</g>
</svg>
