<?xml version="1.0" standalone="no"?>
<!DOCTYPE svg PUBLIC "-//W3C//DTD SVG 20010904//EN"
 "http://www.w3.org/TR/2001/REC-SVG-20010904/DTD/svg10.dtd">
<svg version="1.0" xmlns="http://www.w3.org/2000/svg"
 width="512.000000pt" height="512.000000pt" viewBox="0 0 512.000000 512.000000"
 preserveAspectRatio="xMidYMid meet">

<g transform="translate(0.000000,512.000000) scale(0.100000,-0.100000)"
fill="#000000" stroke="none">
<path d="M1815 4879 c-152 -6 -401 -32 -447 -45 -17 -5 -18 -96 -18 -1729 l0
-1723 23 -5 c12 -3 85 -14 162 -24 200 -26 759 -26 960 0 77 10 148 20 158 23
16 5 17 94 15 1732 l-3 1727 -90 12 c-235 31 -510 43 -760 32z"/>
<path d="M615 4646 c-146 -52 -318 -124 -488 -205 l-127 -61 2 -1275 3 -1275
157 -75 c180 -86 316 -141 473 -195 l110 -37 3 -336 2 -337 -375 0 -375 0 0
-310 0 -310 2013 2 2012 3 3 307 2 308 -377 2 -378 3 -3 332 -2 331 97 33
c143 47 345 130 514 211 l149 71 0 254 0 253 395 0 395 0 0 -180 0 -180 150 0
150 0 0 330 0 330 -135 0 -135 0 0 165 0 165 135 0 135 0 0 150 0 150 -415 0
-415 0 0 -150 0 -150 130 0 130 0 0 -165 0 -165 -260 0 -260 0 -2 871 -3 870
-155 74 c-86 40 -194 88 -240 108 -102 41 -337 127 -350 127 -6 0 -11 -582
-12 -1586 l-3 -1587 -45 -14 c-79 -24 -361 -91 -457 -109 l-93 -17 0 -263 0
-264 -657 2 -658 3 -3 263 c-1 144 -4 262 -7 262 -39 0 -389 80 -527 121 l-68
20 0 1584 c0 872 -3 1585 -7 1584 -5 0 -62 -19 -128 -43z"/>
</g>
</svg>
