<?xml version="1.0" standalone="no"?>
<!DOCTYPE svg PUBLIC "-//W3C//DTD SVG 20010904//EN"
 "http://www.w3.org/TR/2001/REC-SVG-20010904/DTD/svg10.dtd">
<svg version="1.0" xmlns="http://www.w3.org/2000/svg"
 width="512.000000pt" height="512.000000pt" viewBox="0 0 512.000000 512.000000"
 preserveAspectRatio="xMidYMid meet">

<g transform="translate(0.000000,512.000000) scale(0.100000,-0.100000)"
fill="#000000" stroke="none">
<path d="M2586 4875 c-373 -18 -701 -36 -730 -39 -60 -8 -178 -63 -221 -104
-105 -97 -146 -200 -146 -360 1 -118 57 -1355 67 -1469 l6 -73 -28 5 c-16 3
-227 26 -469 51 -462 48 -540 50 -626 18 -119 -45 -229 -159 -264 -277 -9 -29
-52 -391 -97 -822 -89 -844 -88 -832 -36 -947 30 -64 96 -143 152 -181 93 -62
104 -64 906 -148 415 -43 779 -79 808 -79 149 0 311 105 377 246 36 77 40 102
99 672 30 282 55 515 57 517 2 2 98 -310 213 -693 115 -383 220 -721 234 -749
75 -160 263 -269 430 -248 71 9 1477 429 1552 464 32 14 81 51 116 86 95 95
142 217 131 340 -8 79 -438 1510 -474 1578 -77 143 -257 239 -418 224 -33 -3
-134 -28 -225 -55 -91 -27 -166 -49 -167 -48 -1 1 9 29 22 62 13 32 27 82 30
109 10 83 -63 1560 -80 1628 -39 151 -161 271 -320 313 -65 18 -102 17 -899
-21z m104 -470 c71 -37 100 -150 54 -211 -48 -64 -57 -67 -272 -77 -108 -6
-198 -11 -199 -12 -2 -1 2 -86 7 -189 10 -180 10 -190 -10 -230 -53 -112 -208
-113 -263 -3 -15 30 -20 81 -30 286 -12 278 -9 305 46 361 58 59 91 69 264 78
264 15 370 14 403 -3z m185 -1911 c-99 -31 -202 -67 -228 -82 -27 -14 -75 -54
-108 -89 l-59 -64 0 79 c0 43 -7 102 -16 131 -8 29 -14 54 -12 56 4 4 400 21
513 23 l90 1 -180 -55z m-1820 -79 c263 -27 288 -34 327 -85 22 -30 33 -88 24
-124 -10 -40 -64 -94 -104 -105 -26 -8 -86 -5 -221 9 -103 11 -187 20 -187 20
-1 0 -9 -80 -19 -177 -19 -201 -35 -249 -91 -284 -48 -29 -132 -23 -170 12
-62 58 -63 71 -30 387 22 196 27 227 50 266 31 54 103 100 161 105 6 1 122
-10 260 -24z m2613 -235 c52 -32 74 -76 69 -138 -3 -45 -9 -59 -39 -89 -31
-30 -58 -42 -213 -88 -97 -30 -180 -56 -183 -60 -3 -3 18 -81 46 -174 29 -93
52 -186 52 -207 0 -103 -118 -177 -208 -130 -58 30 -73 60 -139 273 -87 284
-88 291 -69 356 22 77 80 129 177 157 41 12 144 44 229 70 173 54 229 60 278
30z"/>
</g>
</svg>
