<?xml version="1.0" standalone="no"?>
<!DOCTYPE svg PUBLIC "-//W3C//DTD SVG 20010904//EN"
 "http://www.w3.org/TR/2001/REC-SVG-20010904/DTD/svg10.dtd">
<svg version="1.0" xmlns="http://www.w3.org/2000/svg"
 width="512.000000pt" height="512.000000pt" viewBox="0 0 512.000000 512.000000"
 preserveAspectRatio="xMidYMid meet">

<g transform="translate(0.000000,512.000000) scale(0.100000,-0.100000)"
fill="#000000" stroke="none">
<path d="M849 4914 c-26 -7 -69 -29 -95 -46 -46 -31 -66 -62 -351 -552 -167
-285 -303 -520 -303 -522 0 -2 236 -4 524 -4 l524 0 11 33 c5 17 78 262 161
542 83 281 155 522 160 538 l9 27 -297 -1 c-227 0 -308 -4 -343 -15z"/>
<path d="M1746 4883 c-41 -127 -316 -1065 -316 -1078 0 -13 64 -15 500 -15
l500 0 0 570 0 570 -334 0 -334 0 -16 -47z"/>
<path d="M2690 4360 l0 -570 500 0 c441 0 500 2 500 15 0 9 -75 265 -167 570
l-166 555 -334 0 -333 0 0 -570z"/>
<path d="M3634 4913 c3 -10 69 -229 146 -488 78 -258 152 -507 166 -552 l25
-83 525 0 c288 0 524 2 524 4 0 8 -583 1003 -605 1032 -14 19 -54 47 -92 66
l-68 33 -313 3 c-298 3 -313 2 -308 -15z"/>
<path d="M0 3448 c0 -51 5 -113 11 -137 40 -177 212 -329 425 -376 116 -26
284 -17 389 21 98 36 180 89 240 156 l45 50 0 189 0 189 -555 0 -555 0 0 -92z"/>
<path d="M1380 3350 l0 -190 63 -63 c251 -251 742 -234 953 33 l34 43 -2 181
-3 181 -522 3 -523 2 0 -190z"/>
<path d="M2697 3533 c-4 -3 -7 -86 -7 -184 l0 -177 32 -39 c76 -92 202 -168
328 -197 93 -22 249 -20 342 3 131 34 256 110 318 194 l30 41 0 183 0 183
-518 0 c-285 0 -522 -3 -525 -7z"/>
<path d="M4010 3346 l0 -184 45 -50 c60 -66 138 -117 238 -154 107 -40 272
-50 391 -23 214 47 384 198 425 376 6 24 11 83 11 132 l0 87 -555 0 -555 0 0
-184z"/>
<path d="M1196 2873 c-96 -86 -257 -163 -420 -200 -47 -11 -119 -16 -213 -16
l-143 0 0 -1179 c0 -1298 -3 -1228 62 -1268 29 -17 50 -20 176 -20 l142 0 0
895 c0 598 4 911 11 944 14 65 56 123 116 158 l48 28 485 0 485 0 47 -28 c26
-15 59 -43 74 -62 55 -73 54 -52 54 -1032 l0 -903 1255 2 1255 3 32 33 33 32
3 1203 2 1203 -67 -8 c-117 -15 -296 6 -423 50 -110 38 -250 123 -309 186
l-24 26 -39 -36 c-161 -145 -386 -228 -618 -227 -160 0 -292 30 -425 96 -69
34 -169 103 -204 141 l-24 25 -51 -43 c-286 -243 -693 -290 -1041 -121 -50 24
-121 69 -161 102 l-70 60 -48 -44z m2926 -663 c63 -18 129 -70 162 -130 l31
-55 3 -421 c3 -406 2 -423 -18 -477 -14 -37 -36 -69 -66 -97 -87 -80 -29 -75
-859 -75 -688 0 -743 1 -778 18 -55 26 -112 81 -139 135 -23 47 -23 50 -26
455 -3 351 -1 416 13 463 24 83 100 159 185 185 39 12 1449 11 1492 -1z"/>
<path d="M2695 1947 c-3 -6 -4 -174 -3 -372 l3 -360 680 0 680 0 3 373 2 372
-680 0 c-537 0 -682 -3 -685 -13z"/>
<path d="M1060 1075 l0 -885 398 2 397 3 0 880 0 880 -397 3 -398 2 0 -885z"/>
</g>
</svg>
