<?xml version="1.0" standalone="no"?>
<!DOCTYPE svg PUBLIC "-//W3C//DTD SVG 20010904//EN"
 "http://www.w3.org/TR/2001/REC-SVG-20010904/DTD/svg10.dtd">
<svg version="1.0" xmlns="http://www.w3.org/2000/svg"
 width="512.000000pt" height="512.000000pt" viewBox="0 0 512.000000 512.000000"
 preserveAspectRatio="xMidYMid meet">

<g transform="translate(0.000000,512.000000) scale(0.100000,-0.100000)"
fill="#000000" stroke="none">
<path d="M4099 4995 c-110 -35 -205 -132 -239 -245 -20 -64 -20 -91 -18 -1680
l3 -1615 33 -67 c75 -153 242 -240 400 -208 156 32 268 143 301 298 7 34 11
198 11 466 l0 413 43 28 c126 83 223 196 292 339 68 142 80 196 79 376 0 142
-2 162 -28 240 -35 105 -66 167 -121 245 -49 69 -148 166 -217 214 l-48 32 0
408 c0 232 -4 431 -10 461 -23 123 -99 223 -207 276 -69 34 -199 43 -274 19z"/>
<path d="M3495 4588 c-506 -231 -1082 -407 -1575 -482 -209 -32 -339 -44 -567
-52 l-183 -7 0 -957 0 -957 233 -6 c243 -6 435 -27 677 -73 461 -87 995 -260
1454 -473 49 -23 91 -40 93 -38 2 2 2 701 1 1554 l-3 1550 -130 -59z"/>
<path d="M501 4034 c-178 -48 -329 -201 -376 -379 -22 -87 -22 -1032 0 -1119
46 -177 182 -322 354 -377 56 -18 99 -22 274 -27 l207 -4 0 961 0 961 -202 -1
c-144 0 -219 -5 -257 -15z"/>
<path d="M644 1873 c9 -64 64 -161 114 -199 22 -18 62 -40 89 -50 26 -10 49
-18 51 -19 1 -1 63 -258 137 -570 100 -418 144 -585 167 -634 59 -124 191
-231 337 -275 73 -22 349 -23 390 -2 28 15 51 53 51 86 0 11 -74 331 -165 712
-91 381 -165 699 -165 708 0 9 13 23 29 33 41 24 90 88 113 149 10 28 17 52
15 54 -7 7 -229 33 -367 44 -74 5 -285 10 -469 10 l-334 0 7 -47z"/>
</g>
</svg>
