<?xml version="1.0" standalone="no"?>
<!DOCTYPE svg PUBLIC "-//W3C//DTD SVG 20010904//EN"
 "http://www.w3.org/TR/2001/REC-SVG-20010904/DTD/svg10.dtd">
<svg version="1.0" xmlns="http://www.w3.org/2000/svg"
 width="512.000000pt" height="512.000000pt" viewBox="0 0 512.000000 512.000000"
 preserveAspectRatio="xMidYMid meet">

<g transform="translate(0.000000,512.000000) scale(0.100000,-0.100000)"
fill="#000000" stroke="none">
<path d="M2094 5104 c-51 -25 -72 -104 -39 -151 8 -11 83 -81 166 -154 l152
-134 -329 -5 c-360 -5 -365 -6 -390 -65 -29 -71 11 -133 90 -142 25 -3 46 -9
46 -14 0 -4 -38 -119 -85 -255 l-85 -247 0 -1607 0 -1607 109 -325 c60 -179
114 -335 120 -346 29 -55 -23 -52 1196 -50 l1125 3 26 26 c19 19 56 111 140
349 l114 323 0 1630 0 1631 -85 226 c-47 124 -85 229 -85 232 0 4 18 9 41 13
23 4 55 19 72 35 26 23 32 36 32 69 0 33 -7 47 -33 74 l-32 32 -829 5 -829 5
-228 205 c-304 274 -311 278 -380 244z m1162 -1488 l34 -34 0 -471 0 -471 259
0 c245 0 260 -1 284 -20 30 -24 47 -75 39 -116 -3 -16 -208 -352 -456 -748
-327 -521 -459 -724 -481 -738 -37 -22 -83 -23 -114 -2 -50 35 -51 50 -51 538
l0 455 -260 3 -260 3 -27 28 c-23 22 -28 36 -27 75 0 44 25 86 447 762 246
393 461 727 478 743 43 40 91 37 135 -7z m-1075 -2793 c45 -45 39 -131 -12
-167 -34 -24 -119 -21 -152 4 -38 30 -52 80 -34 123 23 53 52 69 120 65 41 -3
64 -10 78 -25z"/>
<path d="M1623 5055 c-60 -26 -90 -108 -59 -163 16 -30 65 -62 94 -62 50 0
107 49 112 96 5 45 -2 66 -32 98 -39 41 -72 49 -115 31z"/>
<path d="M934 4966 c-97 -32 -181 -108 -228 -206 -28 -59 -31 -74 -31 -165 0
-90 3 -106 29 -160 76 -154 241 -241 408 -214 80 13 138 42 202 100 198 181
143 506 -104 623 -55 26 -78 31 -150 33 -50 1 -102 -4 -126 -11z"/>
<path d="M1378 4247 c-52 -44 -62 -99 -28 -154 22 -36 82 -60 125 -49 61 15
100 97 74 157 -26 65 -119 90 -171 46z"/>
<path d="M1018 4010 c-125 -39 -179 -173 -114 -283 34 -59 116 -102 176 -94
60 8 111 39 145 86 26 36 30 52 30 105 0 51 -5 70 -28 104 -43 65 -141 104
-209 82z"/>
</g>
</svg>
