<?xml version="1.0" standalone="no"?>
<!DOCTYPE svg PUBLIC "-//W3C//DTD SVG 20010904//EN"
 "http://www.w3.org/TR/2001/REC-SVG-20010904/DTD/svg10.dtd">
<svg version="1.0" xmlns="http://www.w3.org/2000/svg"
 width="512.000000pt" height="512.000000pt" viewBox="0 0 512.000000 512.000000"
 preserveAspectRatio="xMidYMid meet">

<g transform="translate(0.000000,512.000000) scale(0.100000,-0.100000)"
fill="#000000" stroke="none">
<path d="M307 5098 c-23 -14 -45 -38 -58 -66 l-22 -44 32 -242 c17 -133 31
-248 31 -254 0 -9 378 -12 1624 -12 l1624 0 6 28 c3 15 17 127 32 249 32 257
29 283 -33 330 l-36 28 -1581 2 -1581 3 -38 -22z"/>
<path d="M217 4058 c-288 -970 -288 -2021 0 -2996 l36 -122 1024 2 1024 3 28
70 c99 254 325 440 607 500 90 19 254 19 344 0 133 -28 276 -101 367 -187 l32
-31 11 43 c39 144 89 438 116 680 21 189 29 684 15 895 -28 393 -105 820 -212
1168 l-30 97 -1663 0 -1663 0 -36 -122z m2048 -888 c300 -41 559 -132 721
-254 270 -202 270 -510 0 -712 -161 -122 -398 -206 -701 -251 -169 -24 -572
-24 -740 0 -519 78 -846 278 -896 549 -22 126 28 255 145 366 173 164 469 271
866 312 106 11 498 4 605 -10z"/>
<path d="M1640 2879 c-268 -28 -509 -101 -623 -191 -40 -32 -77 -93 -77 -128
0 -35 37 -96 77 -128 159 -125 504 -202 907 -202 259 0 481 32 675 96 389 129
389 339 0 468 -126 42 -219 62 -387 81 -137 16 -431 18 -572 4z"/>
<path d="M3045 1229 c-174 -17 -344 -132 -419 -284 -150 -307 13 -662 344
-750 73 -19 203 -19 271 1 119 35 164 68 392 293 l218 215 -193 193 c-106 107
-216 212 -244 234 -100 77 -227 111 -369 98z"/>
<path d="M4682 1045 c-29 -8 -67 -22 -85 -31 -17 -9 -243 -227 -502 -484 -258
-257 -490 -482 -515 -499 l-44 -32 504 3 505 3 77 26 c119 41 204 94 288 178
87 88 140 173 177 286 22 66 26 100 27 190 1 101 -1 115 -27 167 -75 152 -251
236 -405 193z"/>
<path d="M290 627 c0 -7 -14 -116 -30 -242 -17 -127 -28 -244 -25 -262 3 -18
17 -46 32 -63 53 -64 -30 -60 1235 -60 l1153 1 -30 21 c-59 43 -158 144 -201
205 -76 105 -126 232 -149 376 l-6 37 -989 0 c-799 0 -990 -2 -990 -13z"/>
</g>
</svg>
