<?xml version="1.0" standalone="no"?>
<!DOCTYPE svg PUBLIC "-//W3C//DTD SVG 20010904//EN"
 "http://www.w3.org/TR/2001/REC-SVG-20010904/DTD/svg10.dtd">
<svg version="1.0" xmlns="http://www.w3.org/2000/svg"
 width="512.000000pt" height="512.000000pt" viewBox="0 0 512.000000 512.000000"
 preserveAspectRatio="xMidYMid meet">

<g transform="translate(0.000000,512.000000) scale(0.100000,-0.100000)"
fill="#000000" stroke="none">
<path d="M3520 4533 l0 -160 55 -6 c121 -12 240 -98 298 -216 30 -61 32 -72
32 -171 0 -93 -3 -112 -27 -162 -51 -110 -169 -206 -274 -223 -94 -15 -84 5
-84 -175 l0 -160 53 0 c63 0 170 -22 246 -50 246 -92 440 -305 523 -575 20
-64 22 -97 26 -392 l3 -323 161 0 160 0 -4 338 c-4 326 -5 340 -31 435 -53
198 -154 381 -288 522 -83 87 -196 176 -281 220 -32 17 -58 34 -58 38 0 5 20
32 45 60 56 65 118 189 140 283 26 111 17 283 -20 393 -52 151 -172 300 -310
383 -81 49 -203 89 -292 95 l-73 6 0 -160z"/>
<path d="M2912 4040 c-233 -61 -424 -244 -499 -478 -112 -350 79 -748 421
-877 112 -42 151 -47 431 -54 l270 -6 65 -31 c83 -40 124 -75 171 -147 54 -84
69 -161 69 -361 l0 -166 161 0 161 0 -4 238 c-4 226 -5 240 -30 310 -75 208
-236 361 -463 438 -77 27 -90 28 -360 34 -254 6 -285 9 -335 28 -238 94 -344
404 -208 608 61 90 194 164 294 164 l34 0 0 160 0 160 -52 -1 c-29 0 -86 -9
-126 -19z"/>
<path d="M430 1390 l0 -320 1600 0 1600 0 -2 318 -3 317 -1597 3 -1598 2 0
-320z"/>
<path d="M3840 1390 l0 -320 160 0 160 0 0 320 0 320 -160 0 -160 0 0 -320z"/>
<path d="M4377 1703 c-4 -3 -7 -147 -7 -320 l0 -313 160 0 160 0 0 320 0 320
-153 0 c-85 0 -157 -3 -160 -7z"/>
</g>
</svg>
