<?xml version="1.0" standalone="no"?>
<!DOCTYPE svg PUBLIC "-//W3C//DTD SVG 20010904//EN"
 "http://www.w3.org/TR/2001/REC-SVG-20010904/DTD/svg10.dtd">
<svg version="1.0" xmlns="http://www.w3.org/2000/svg"
 width="512.000000pt" height="512.000000pt" viewBox="0 0 512.000000 512.000000"
 preserveAspectRatio="xMidYMid meet">

<g transform="translate(0.000000,512.000000) scale(0.100000,-0.100000)"
fill="#000000" stroke="none">
<path d="M2370 5114 c-19 -2 -78 -9 -130 -15 -791 -90 -1522 -586 -1924 -1305
-146 -262 -252 -587 -297 -914 -20 -143 -18 -527 4 -670 90 -586 331 -1065
738 -1467 63 -62 155 -145 204 -185 641 -512 1494 -684 2290 -461 929 260
1646 1043 1819 1987 156 845 -103 1682 -705 2285 -399 398 -879 639 -1449 726
-100 15 -472 28 -550 19z m-656 -1709 c224 -65 404 -202 521 -395 68 -113 54
-205 -40 -250 -86 -42 -141 -17 -216 96 -218 327 -636 379 -904 111 -181 -181
-224 -435 -113 -665 44 -93 167 -215 262 -260 179 -87 374 -78 531 23 28 18
336 288 685 600 349 313 661 588 694 612 77 57 184 107 288 135 119 32 317 32
438 0 387 -105 659 -457 660 -853 0 -500 -437 -910 -934 -875 -279 19 -534
167 -682 396 -76 118 -70 206 18 260 77 47 161 17 223 -79 166 -260 477 -351
751 -220 95 46 217 168 263 263 110 230 67 482 -113 662 -209 210 -539 231
-761 49 -22 -18 -323 -286 -670 -595 -346 -310 -661 -584 -700 -608 -502 -327
-1195 -8 -1301 600 -85 484 254 945 751 1022 17 2 82 3 145 1 87 -3 137 -10
204 -30z"/>
</g>
</svg>
