<?xml version="1.0" standalone="no"?>
<!DOCTYPE svg PUBLIC "-//W3C//DTD SVG 20010904//EN"
 "http://www.w3.org/TR/2001/REC-SVG-20010904/DTD/svg10.dtd">
<svg version="1.0" xmlns="http://www.w3.org/2000/svg"
 width="512.000000pt" height="512.000000pt" viewBox="0 0 512.000000 512.000000"
 preserveAspectRatio="xMidYMid meet">

<g transform="translate(0.000000,512.000000) scale(0.100000,-0.100000)"
fill="#000000" stroke="none">
<path d="M1537 5109 c-54 -13 -112 -45 -136 -75 -16 -21 -21 -41 -21 -89 0
-49 -4 -66 -20 -80 -26 -23 -26 -57 0 -80 20 -18 20 -29 18 -508 l-3 -489 -55
-22 c-154 -59 -293 -171 -357 -287 -68 -121 -63 -3 -61 -1716 l3 -1551 31 -39
c57 -71 198 -125 402 -155 131 -19 522 -16 647 6 233 40 361 106 394 205 14
44 16 2996 1 3085 -31 193 -213 385 -437 464 l-33 11 0 489 c0 406 2 492 14
501 23 19 25 49 5 75 -13 17 -19 40 -19 75 0 74 -20 115 -72 144 -74 43 -205
59 -301 36z m595 -4791 c-14 -14 -167 -46 -280 -59 -210 -22 -547 1 -670 47
l-42 16 2 826 3 826 80 13 c162 28 272 72 504 206 117 68 255 121 351 134 l55
8 3 -1004 c1 -553 -1 -1008 -6 -1013z"/>
<path d="M3260 2499 c-279 -16 -471 -81 -536 -179 -23 -34 -30 -80 -85 -516
-71 -562 -72 -591 -15 -710 51 -108 156 -211 281 -275 96 -50 163 -73 290 -98
l80 -16 0 -139 0 -139 -160 -58 c-87 -32 -197 -76 -243 -99 -75 -38 -83 -44
-80 -68 2 -17 14 -32 33 -43 148 -85 1002 -85 1150 0 87 50 23 96 -295 211
l-155 57 0 139 0 139 80 16 c44 9 111 26 149 38 259 81 451 282 464 484 4 71
-97 944 -119 1029 -32 122 -230 207 -519 223 -52 3 -117 7 -145 9 -27 1 -106
-1 -175 -5z m286 -249 c136 -12 251 -33 297 -56 21 -12 27 -21 27 -48 0 -19 3
-41 6 -49 4 -11 -8 -18 -48 -27 -151 -34 -293 -101 -418 -196 -88 -67 -150
-97 -242 -119 -63 -14 -288 -35 -288 -26 0 12 51 419 55 437 3 11 15 25 28 31
42 19 170 44 272 52 146 12 169 12 311 1z"/>
</g>
</svg>
