<?xml version="1.0" standalone="no"?>
<!DOCTYPE svg PUBLIC "-//W3C//DTD SVG 20010904//EN"
 "http://www.w3.org/TR/2001/REC-SVG-20010904/DTD/svg10.dtd">
<svg version="1.0" xmlns="http://www.w3.org/2000/svg"
 width="1920.000000pt" height="1080.000000pt" viewBox="0 0 1920.000000 1080.000000"
 preserveAspectRatio="xMidYMid meet">

<g transform="translate(0.000000,1080.000000) scale(0.100000,-0.100000)"
fill="#000000" stroke="none">
<path d="M12490 8670 c-42 -10 -115 -42 -152 -66 -26 -17 -28 -17 -104 22 -74
37 -81 39 -173 39 -77 0 -105 -4 -143 -22 -69 -32 -141 -103 -171 -171 l-25
-57 -4 -855 -3 -855 27 -55 c46 -93 119 -156 213 -185 41 -12 122 -15 451 -15
375 0 406 1 465 20 78 25 147 74 190 136 41 60 57 114 65 225 l7 89 77 0 c137
0 224 50 277 158 l28 57 0 385 0 385 -28 57 c-51 103 -142 157 -267 159 -103
1 -98 -4 -99 107 0 53 -4 112 -10 130 -29 96 -101 169 -193 197 -26 7 -65 28
-86 45 -57 46 -135 72 -227 76 -44 2 -96 -1 -115 -6z m156 -145 c32 -9 71 -33
106 -64 44 -37 67 -50 103 -55 63 -10 104 -48 112 -103 l6 -43 -514 -1 c-283
-1 -529 -2 -546 -4 -47 -4 -56 13 -48 85 13 108 88 180 188 180 57 0 103 -19
142 -60 27 -28 34 -30 103 -30 72 0 75 1 120 40 42 38 111 68 158 69 11 1 43
-6 70 -14z m322 -1098 c2 -660 2 -679 -18 -717 -25 -50 -73 -86 -130 -99 -27
-6 -200 -11 -425 -11 -375 0 -381 0 -425 23 -24 12 -58 39 -74 60 l-31 39 -3
686 c-2 546 0 687 10 694 7 4 256 7 553 5 l540 -2 3 -678z m358 501 l34 -38 0
-360 c0 -392 0 -395 -56 -439 -22 -17 -41 -21 -100 -21 -59 0 -74 3 -74 15 0
8 -2 202 -5 432 -3 229 -2 426 1 436 5 17 15 19 86 15 77 -3 81 -4 114 -40z"/>
<path d="M4121 8539 c-65 -13 -183 -71 -251 -125 -176 -138 -254 -356 -230
-645 11 -135 28 -197 82 -301 37 -72 80 -121 136 -158 l24 -15 -40 -91 c-22
-50 -47 -113 -56 -140 -33 -110 -127 -359 -145 -388 -16 -24 -32 -33 -88 -46
-37 -10 -122 -33 -188 -53 -67 -20 -145 -37 -175 -39 -52 -3 -55 -2 -58 22 -2
13 -23 47 -46 75 -23 27 -64 80 -90 117 l-47 68 16 45 c51 151 -33 307 -183
340 -51 11 -110 -4 -148 -38 -51 -44 -67 -82 -67 -157 -1 -146 100 -263 240
-277 43 -5 62 -11 72 -27 8 -12 43 -51 78 -87 35 -36 63 -70 63 -76 0 -6 -38
-13 -87 -16 -118 -8 -187 -32 -238 -82 -22 -22 -48 -55 -57 -72 -13 -26 -24
-33 -46 -33 -38 0 -62 -28 -62 -72 0 -41 13 -55 61 -65 20 -4 46 -20 64 -40
26 -29 44 -37 123 -56 83 -20 92 -24 87 -42 -3 -11 -9 -45 -12 -75 l-5 -56
-65 -18 c-263 -76 -329 -492 -117 -734 25 -29 65 -64 89 -78 51 -30 51 -23 4
-197 -48 -179 -42 -171 -141 -184 -293 -40 -710 -317 -684 -456 3 -19 15 -43
26 -55 26 -28 26 -31 -11 -82 -76 -105 -163 -328 -197 -503 -26 -139 -22 -403
7 -517 67 -258 196 -476 363 -618 75 -63 218 -148 285 -169 29 -9 53 -20 53
-23 0 -4 -33 -10 -72 -14 -125 -11 -332 -63 -387 -97 -31 -19 -33 -22 -18 -37
13 -12 35 -15 104 -14 141 3 302 23 1008 127 94 13 225 31 293 40 67 8 178 24
245 35 67 11 190 29 272 40 83 11 188 27 235 34 47 8 146 22 220 31 74 9 194
27 265 40 72 13 184 29 250 35 66 6 235 29 375 51 140 22 359 55 485 75 127
19 311 51 410 69 171 33 409 71 595 95 47 6 114 20 150 30 36 10 103 24 150
30 81 11 227 40 390 78 61 15 75 21 75 37 0 44 -76 50 -273 25 -40 -6 -78 -10
-84 -10 -5 0 38 48 96 106 150 150 255 313 317 493 36 103 69 305 69 419 0
147 -43 356 -99 484 -23 51 -41 96 -41 99 0 3 33 -2 73 -13 39 -10 108 -21
152 -24 69 -6 84 -4 98 10 28 29 20 60 -54 208 -74 147 -146 262 -206 329 -19
21 -32 42 -29 47 3 5 24 12 47 16 28 5 53 18 75 40 31 31 34 40 34 91 0 74
-25 116 -87 146 -42 20 -55 21 -169 16 -77 -4 -124 -3 -124 3 0 5 7 27 15 48
9 21 21 72 28 113 l13 74 51 6 c29 4 69 17 89 30 22 13 84 33 146 45 128 27
169 49 198 109 21 43 21 49 20 747 -1 387 1 711 6 721 11 30 -5 256 -21 287
-37 72 -107 105 -362 170 -67 17 -141 37 -165 46 -36 13 -228 67 -508 144 -36
10 -78 23 -95 30 -38 15 -261 60 -298 60 -26 0 -193 -27 -412 -66 -49 -9 -115
-27 -145 -41 -89 -39 -236 -63 -395 -63 -150 0 -264 -21 -288 -54 -8 -10 -55
-25 -128 -40 -64 -13 -130 -31 -146 -40 -38 -19 -89 -77 -108 -121 -14 -34
-35 -48 -35 -22 0 6 11 39 25 72 45 111 59 197 48 299 -17 150 -65 248 -175
358 -61 61 -170 123 -267 152 -59 17 -195 20 -270 5z m241 -98 c105 -27 172
-64 238 -130 101 -102 153 -254 130 -382 -20 -109 -29 -111 -29 -9 -1 100 -19
192 -48 238 -51 82 -124 135 -215 157 -218 51 -445 -34 -561 -210 -23 -36 -47
-65 -54 -65 -22 0 -63 23 -63 36 0 25 41 116 72 162 125 181 321 256 530 203z
m2167 -437 c17 -4 31 -10 31 -14 0 -10 -148 -50 -184 -50 -15 0 -46 10 -69 22
l-42 22 60 12 c69 13 158 17 204 8z m-439 -54 c160 -35 248 -61 254 -76 9 -23
-42 -17 -209 26 -162 42 -205 56 -205 65 0 11 70 4 160 -15z m-2285 -22 c37
-12 61 -24 55 -28 -7 -5 -16 -60 -22 -136 -5 -71 -11 -130 -12 -132 -2 -1 -17
3 -35 9 -49 17 -61 56 -61 194 0 63 2 115 5 115 2 0 34 -10 70 -22z m3148 -43
c140 -35 141 -36 62 -51 -128 -26 -167 -26 -335 -5 -177 23 -235 35 -210 44
31 12 176 47 205 49 53 5 173 -11 278 -37z m-1553 -26 c24 -7 24 -7 -5 -8 -16
0 -41 6 -55 14 l-25 15 30 -7 c17 -3 41 -10 55 -14z m455 6 c-16 -7 -53 -15
-82 -19 -43 -5 -51 -4 -47 8 6 16 39 22 114 24 l45 0 -30 -13z m-185 -43 c0
-4 -40 -17 -88 -30 -86 -22 -227 -73 -287 -104 -41 -21 -64 -49 -81 -95 -8
-23 -13 -30 -14 -18 0 11 -5 27 -10 35 -7 12 -11 10 -19 -10 -9 -22 -10 -20
-10 21 -1 37 4 50 27 71 30 29 140 76 266 113 78 23 216 34 216 17z m452 -11
c57 -11 141 -23 188 -26 47 -4 123 -13 170 -22 47 -8 159 -25 250 -38 91 -14
189 -33 217 -44 29 -10 72 -22 95 -26 64 -10 129 -27 124 -32 -7 -7 -159 -43
-186 -43 -14 -1 -56 -9 -95 -19 l-70 -19 -43 30 c-59 41 -111 62 -222 92 -98
25 -142 31 -345 41 -66 4 -154 12 -195 20 -41 7 -108 18 -148 25 -39 6 -70 15
-67 20 3 4 27 13 53 20 27 6 66 17 88 25 52 19 65 18 186 -4z m-942 -41 c-65
-54 -75 -57 -128 -30 l-47 24 55 9 c30 4 75 12 100 16 25 5 47 9 50 10 3 0
-11 -13 -30 -29z m2114 -49 c90 -35 108 -48 145 -111 25 -43 26 -52 29 -224 2
-98 0 -182 -5 -186 -4 -4 -25 -11 -45 -14 l-36 -7 -4 178 c-3 176 -3 179 -33
232 -34 62 -90 103 -170 126 -27 8 -70 20 -95 27 l-45 12 50 6 c66 7 113 -2
209 -39z m296 -18 c9 -3 -4 -11 -32 -19 l-47 -14 -42 39 -43 39 75 -19 c41
-11 81 -23 89 -26z m-1766 -21 l118 -28 -61 -19 c-34 -10 -84 -33 -112 -51
l-50 -33 -92 25 c-51 14 -123 35 -161 46 l-68 21 63 24 c161 60 169 60 363 15z
m-828 -33 c25 -6 47 -15 49 -20 7 -10 -93 19 -115 33 -12 8 -11 8 4 4 10 -4
38 -11 62 -17z m1252 -24 c-21 -8 -82 -23 -135 -35 -122 -26 -187 -57 -246
-117 -39 -39 -48 -44 -61 -33 -46 38 6 102 121 150 93 39 140 48 263 48 92 1
94 0 58 -13z m1506 -8 c10 -7 17 -22 14 -33 -3 -15 -15 -20 -64 -26 -34 -3
-80 -12 -104 -18 -23 -6 -43 -10 -45 -8 -2 2 -5 16 -7 32 -3 27 0 29 62 46 82
22 121 24 144 7z m-1198 -27 c106 -33 156 -65 189 -121 18 -31 20 -50 18 -228
-1 -106 -3 -195 -5 -196 -2 -2 -20 -6 -40 -10 l-38 -7 0 172 c0 193 -7 232
-56 289 -37 43 -96 71 -201 97 -40 9 -73 21 -73 26 0 19 112 7 206 -22z
m-1836 -46 c16 -47 7 -129 -18 -185 -16 -34 -21 -39 -21 -21 -1 14 -11 27 -26
34 -22 10 -28 7 -70 -38 l-46 -49 41 64 c22 35 40 68 40 73 0 17 71 158 80
158 5 0 14 -16 20 -36z m706 -8 c43 -13 114 -31 156 -40 43 -10 80 -21 83 -27
8 -11 11 -11 -61 2 -93 17 -308 88 -268 89 6 0 46 -11 90 -24z m1842 -23 c4
-24 1 -25 -103 -47 -38 -8 -123 -26 -189 -40 -65 -14 -120 -26 -122 -26 -2 0
-4 13 -4 30 0 35 11 39 220 76 79 14 146 27 149 30 13 13 46 -3 49 -23z
m-3191 1 c-1 -1 -46 -11 -101 -23 -54 -11 -104 -25 -111 -31 -10 -8 -18 -3
-34 19 -12 16 -21 31 -21 33 0 1 60 3 134 3 74 0 134 -1 133 -1z m893 -66 c0
-4 -15 -15 -32 -24 -53 -27 -96 -64 -119 -101 -12 -19 -23 -32 -25 -31 -2 2 6
32 16 67 11 34 20 85 20 111 l0 49 70 -32 c38 -18 69 -35 70 -39z m1427 50
c39 -7 74 -16 78 -20 12 -11 -177 -58 -237 -58 -35 0 -228 51 -228 61 0 3 35
13 78 22 85 17 191 16 309 -5z m-1162 -127 c23 -10 45 -23 48 -27 3 -5 -32 -9
-76 -9 -71 0 -89 -4 -133 -28 -77 -43 -150 -122 -173 -187 -11 -30 -20 -47
-20 -38 -1 15 -5 16 -26 8 -36 -14 -40 6 -15 70 47 120 92 173 185 217 41 20
60 23 108 19 33 -3 78 -14 102 -25z m1343 -3 c-3 -20 -16 -26 -118 -50 -63
-14 -125 -27 -136 -27 -24 -1 -40 27 -25 42 12 12 200 54 249 56 29 1 33 -2
30 -21z m-518 -14 c61 -14 110 -28 107 -30 -5 -5 -217 42 -225 50 -9 9 0 8
118 -20z m-1855 -91 c18 -27 18 -27 -16 -55 -18 -15 -37 -28 -41 -28 -10 0
-11 94 -1 103 14 15 42 6 58 -20z m-171 -95 c4 -62 9 -138 12 -168 l4 -55 -19
40 c-24 50 -51 178 -51 245 0 46 2 50 24 50 23 0 23 -3 30 -112z m1254 68 c41
-22 97 -85 125 -141 36 -73 54 -141 77 -295 30 -201 35 -303 20 -405 -15 -101
-13 -104 -45 70 -50 272 -165 549 -265 639 -53 48 -94 49 -137 4 -44 -46 -53
-75 -54 -181 l-2 -92 -9 88 c-7 71 -6 100 6 142 21 69 72 144 116 167 42 22
130 24 168 4z m-1372 -267 c-7 -47 -91 -298 -103 -310 -13 -13 -63 10 -63 29
0 8 32 112 72 231 l72 216 13 -65 c8 -36 12 -81 9 -101z m-1106 120 c37 -21
70 -64 70 -93 0 -13 -10 -10 -49 14 -65 40 -112 40 -152 1 l-29 -29 0 26 c1
55 46 101 99 102 13 0 40 -9 61 -21z m4257 -25 c-3 -3 -12 -4 -19 -1 -8 3 -5
6 6 6 11 1 17 -2 13 -5z m-40 -10 c-3 -3 -12 -4 -19 -1 -8 3 -5 6 6 6 11 1 17
-2 13 -5z m13 -44 c21 13 43 12 34 -1 -5 -9 1 -10 20 -5 21 5 26 3 25 -11 0
-10 -3 -13 -5 -6 -4 9 -13 9 -30 2 -32 -12 -37 -11 -29 1 3 6 1 10 -4 10 -6 0
-11 -4 -11 -9 0 -5 -25 -12 -56 -16 -31 -4 -66 -9 -79 -11 -24 -4 -51 19 -41
35 7 10 87 8 105 -3 6 -4 11 -3 11 3 0 6 7 7 17 4 12 -5 14 -3 8 8 -7 11 -6
12 6 2 9 -8 20 -9 29 -3z m-402 -15 c-2 -3 -27 -7 -54 -10 l-49 -5 50 13 c47
13 64 13 53 2z m75 -25 c8 0 12 -20 11 -60 -1 -33 2 -60 6 -60 3 0 5 -13 2
-30 -4 -26 -9 -30 -51 -35 -25 -4 -68 -13 -95 -21 -27 -8 -65 -14 -83 -14 -33
0 -38 7 -36 58 1 14 -43 16 -52 2 -3 -5 -1 -10 4 -10 6 0 11 -8 11 -19 0 -10
11 -26 25 -35 15 -10 25 -26 25 -40 0 -22 2 -23 38 -15 52 12 135 11 127 -1
-3 -5 -17 -10 -31 -10 -13 0 -24 -4 -24 -10 0 -5 -10 -10 -23 -10 -13 0 -27
-4 -32 -9 -6 -6 -32 -12 -60 -16 -65 -7 -87 -14 -80 -26 4 -5 2 -9 -2 -9 -16
0 -32 38 -47 113 -9 41 -20 87 -26 102 -6 15 -9 39 -8 54 1 14 -1 32 -6 39 -4
7 -3 12 3 12 5 0 13 -5 16 -10 9 -14 25 -3 25 17 0 11 -6 14 -25 9 -14 -4 -25
-2 -25 3 0 9 89 22 150 23 59 0 122 0 182 1 31 0 57 3 56 6 -1 16 4 25 9 14 2
-7 10 -13 16 -13z m-190 3 c-7 -2 -21 -2 -30 0 -10 3 -4 5 12 5 17 0 24 -2 18
-5z m557 -73 c0 -5 -4 -10 -10 -10 -5 0 -10 5 -10 10 0 6 5 10 10 10 6 0 10
-4 10 -10z m64 -58 c-8 -2 -14 -7 -14 -10 0 -4 -12 -8 -27 -9 -16 -1 -48 -4
-73 -7 -25 -3 -52 -5 -60 -6 -13 0 -13 -1 0 -10 11 -7 6 -8 -15 -5 -17 2 -37
4 -45 5 -9 0 -6 6 10 15 14 8 21 15 15 16 -5 1 19 5 55 8 36 4 67 3 70 -1 3
-4 17 -2 31 6 13 7 30 11 37 8 8 -2 10 3 6 15 -6 16 -5 16 9 -2 13 -17 13 -20
1 -23z m-2748 -16 c27 -27 34 -42 34 -72 l-1 -39 -15 27 c-17 32 -79 53 -125
43 -32 -7 -66 -37 -79 -70 -7 -19 -8 -18 -20 7 -27 58 50 138 133 138 31 0 46
-7 73 -34z m-659 -257 c15 -6 38 -20 51 -31 l22 -22 -37 -13 c-21 -7 -72 -20
-114 -28 -42 -9 -138 -33 -213 -54 l-136 -38 -38 32 c-20 18 -34 36 -31 39 6
7 94 31 344 96 130 34 117 33 152 19z m453 7 c0 -2 -54 -55 -120 -118 -73 -69
-120 -107 -120 -97 0 20 134 172 176 200 25 16 64 26 64 15z m2305 -56 c-3 -5
-17 -10 -31 -10 -13 0 -24 -4 -24 -10 0 -5 -5 -10 -11 -10 -5 0 -7 5 -4 10 3
6 0 11 -7 11 -7 1 3 5 22 9 52 11 62 11 55 0z m-2207 -104 c23 -40 42 -78 42
-82 0 -13 -190 -80 -214 -75 -45 7 -45 14 -5 81 35 59 113 150 129 150 3 0 25
-33 48 -74z m2349 42 c-3 -7 -5 -2 -5 12 0 14 2 19 5 13 2 -7 2 -19 0 -25z
m186 -20 c7 -7 12 -24 13 -38 0 -14 4 -50 8 -81 8 -53 7 -56 -15 -62 -13 -3
-25 -5 -26 -3 -8 8 -34 169 -29 182 7 17 33 18 49 2z m-3803 -25 c0 -27 -3
-29 -108 -52 -59 -13 -114 -25 -123 -27 -9 -3 -21 -14 -27 -27 l-11 -22 0 22
c-1 15 -6 21 -15 17 -10 -4 -13 0 -10 13 17 61 106 101 227 102 67 1 67 1 67
-26z m2203 3 c30 -13 57 -28 61 -34 7 -12 -46 -26 -219 -57 -221 -38 -299 -53
-315 -59 -10 -4 -28 7 -50 29 -29 30 -32 37 -20 45 14 9 263 70 360 89 79 15
127 12 183 -13z m1427 1 c0 -20 -8 -25 -61 -36 -40 -8 -65 -9 -71 -3 -19 19 2
31 62 38 33 4 60 11 60 15 0 5 2 9 5 9 3 0 5 -10 5 -23z m117 -72 c14 -92 12
-108 -19 -103 -23 3 -27 14 -43 117 -3 19 -8 38 -11 42 -10 16 8 30 34 27 25
-3 27 -8 39 -83z m-3577 25 c31 -44 14 -73 -27 -47 -15 9 -18 77 -4 77 5 0 19
-14 31 -30z m3470 -3 c0 -8 -6 -14 -12 -15 -7 -1 -28 -5 -45 -8 -26 -5 -33 -3
-33 9 0 17 18 24 63 26 16 1 27 -4 27 -12z m-6 -36 c3 -5 -1 -14 -10 -21 -11
-10 -18 -10 -27 -1 -9 9 -9 14 3 21 19 12 27 12 34 1z m-66 -18 c-4 -23 -58
-31 -58 -9 0 13 11 18 53 25 5 0 7 -7 5 -16z m70 -35 c-5 -15 -68 -24 -68 -10
0 15 13 22 43 22 18 0 27 -4 25 -12z m-2088 -40 c51 -35 48 -45 -17 -58 -32
-7 -85 -21 -118 -32 -64 -21 -118 -25 -180 -14 l-40 8 -28 -54 -28 -53 5 50
c3 28 10 63 17 79 25 53 141 92 290 95 53 1 72 -3 99 -21z m-1454 -57 c36 -17
90 -68 81 -78 -3 -2 -27 8 -55 22 -29 14 -74 29 -102 32 -58 7 -72 19 -38 32
36 15 69 12 114 -8z m940 -43 c-3 -13 -5 -27 -5 -31 -1 -5 -32 -5 -70 -1 -39
3 -82 3 -96 0 -35 -9 -122 -91 -145 -137 -11 -20 -28 -39 -40 -42 -25 -6 -26
12 -4 56 51 98 128 156 208 158 28 1 65 5 81 9 59 15 75 12 71 -12z m-599 -33
c23 -14 50 -40 59 -56 18 -36 12 -49 -13 -27 -28 24 -95 56 -147 69 -38 9 -44
14 -35 25 19 23 87 17 136 -11z m-389 -11 c26 -8 29 -24 4 -24 -22 0 -53 -32
-76 -77 -18 -35 -52 -45 -63 -17 -5 14 20 84 40 112 10 13 57 16 95 6z m322
-69 c22 -13 23 -14 5 -15 -11 0 -27 -6 -36 -13 -26 -20 -51 -65 -43 -78 5 -9
-3 -11 -31 -6 -20 3 -40 8 -42 11 -7 7 13 64 32 93 18 27 75 31 115 8z m630
-64 c36 -10 85 -28 110 -39 41 -17 204 -62 228 -62 5 0 26 11 47 25 43 30 58
23 82 -32 11 -28 11 -38 -1 -68 -8 -19 -19 -35 -25 -35 -5 0 -49 10 -98 21
-70 17 -117 21 -233 21 -80 -1 -156 -3 -170 -5 -68 -11 -118 -19 -142 -23
l-26 -5 15 58 c17 66 26 85 60 131 29 39 57 41 153 13z m-834 -136 c45 -34 88
-94 110 -151 18 -48 17 -54 -15 -57 -11 -1 -24 -10 -27 -21 -5 -15 -12 -6 -28
40 -27 73 -69 136 -130 192 -25 23 -46 44 -46 46 0 12 106 -27 136 -49z m-232
3 c70 -37 145 -126 152 -181 1 -12 8 -56 14 -97 40 -247 -82 -421 -268 -382
-225 47 -312 431 -137 607 55 55 109 77 169 70 27 -4 59 -11 70 -17z m701 -90
c24 -11 35 -38 15 -38 -5 0 -10 5 -10 11 0 26 -19 -6 -30 -51 -13 -55 -20 -63
-45 -54 -12 5 -15 14 -10 38 23 111 29 118 80 94z m738 -72 c90 -30 157 -62
157 -75 0 -16 -30 -20 -148 -20 -147 0 -279 -16 -400 -47 -102 -26 -178 -30
-229 -12 -30 11 -33 16 -28 38 28 115 131 152 405 146 147 -3 174 -6 243 -30z
m967 21 c30 -8 68 -20 84 -29 l30 -16 -60 -16 c-72 -20 -405 -134 -529 -182
-160 -61 -242 -120 -338 -247 -30 -40 -92 -77 -130 -77 -12 0 -28 -5 -35 -12
-22 -22 -15 130 9 182 27 61 92 142 138 174 82 57 398 180 566 220 76 18 194
19 265 3z m-1696 -46 c-4 -17 -9 -30 -11 -27 -3 2 -2 19 2 36 9 41 17 33 9 -9z
m-135 -102 c18 -6 38 -24 46 -40 14 -26 14 -29 -5 -39 -15 -8 -40 -7 -97 5
-62 13 -78 13 -84 3 -6 -8 -9 -2 -9 19 0 56 69 80 149 52z m4032 -178 c13 -11
22 -22 19 -24 -3 -3 -69 -7 -147 -9 -103 -2 -145 0 -154 9 -7 7 -10 15 -7 18
11 12 96 23 179 24 72 1 91 -2 110 -18z m-4061 -85 c0 -2 -16 -51 -37 -108
-20 -56 -36 -110 -35 -119 0 -12 -6 -15 -24 -11 -13 2 -26 8 -29 12 -3 4 8 45
24 91 47 138 48 139 76 139 14 0 25 -2 25 -4z m3747 -36 c150 -77 282 -223
387 -429 32 -62 56 -115 53 -117 -2 -2 -31 42 -64 98 -127 216 -237 332 -386
408 -54 27 -104 50 -112 50 -18 0 -20 16 -2 23 27 11 49 5 124 -33z m-2263
-240 c29 -47 98 -161 153 -255 55 -93 137 -232 182 -308 44 -76 81 -143 81
-148 0 -6 -7 -24 -16 -41 -15 -29 -17 -30 -26 -12 -12 22 -238 397 -340 564
-116 191 -148 259 -148 319 l0 25 31 -30 c17 -16 54 -67 83 -114z m1086 8 c0
-53 -10 -67 -48 -67 -21 0 -93 -11 -162 -26 -285 -59 -480 -86 -480 -67 0 6
-6 17 -14 25 -12 12 -1 17 87 35 196 40 590 119 610 121 4 1 7 -9 7 -21z m253
-214 c65 -124 117 -231 117 -238 0 -8 -6 -19 -14 -25 -10 -9 -35 31 -125 209
-101 201 -130 280 -103 280 5 0 61 -102 125 -226z m-3442 91 c-24 -116 -27
-125 -48 -125 -13 0 -23 3 -23 7 0 8 70 225 76 235 3 4 9 8 13 8 5 0 -3 -56
-18 -125z m343 84 c6 -5 3 -29 -6 -61 -16 -53 -68 -201 -72 -205 -4 -4 -145
32 -151 38 -5 6 20 93 55 187 l23 64 71 -7 c39 -4 75 -11 80 -16z m3728 -38
c105 -31 201 -87 287 -171 159 -154 261 -377 277 -602 3 -43 1 -78 -4 -78 -4
0 -17 44 -26 98 -10 53 -28 126 -38 162 -51 167 -163 328 -294 425 -168 123
-294 152 -576 132 -54 -4 -98 -6 -98 -3 0 6 117 44 171 56 66 14 224 4 301
-19z m-3602 -11 c13 -8 9 -28 -30 -141 -44 -129 -72 -172 -87 -134 -6 17 6 63
54 202 28 83 35 91 63 73z m195 -80 c28 -29 109 -62 188 -76 21 -3 40 -12 43
-18 2 -6 8 -56 14 -111 5 -55 13 -126 16 -157 l7 -57 -108 0 c-70 -1 -115 -5
-127 -13 -17 -12 -28 -4 -104 69 l-84 82 45 122 c25 67 45 126 45 130 0 17 20
59 28 59 4 0 21 -13 37 -30z m3336 -146 c92 -27 216 -104 168 -104 -7 0 1 -10
17 -22 16 -13 37 -23 47 -23 25 0 95 -88 134 -168 107 -217 107 -539 0 -752
-103 -205 -254 -349 -424 -402 -74 -23 -95 -25 -181 -20 -114 6 -176 26 -229
73 l-38 34 65 -30 c95 -43 167 -54 264 -40 112 16 175 43 267 112 289 218 392
593 264 968 -13 39 -21 70 -17 70 3 0 -4 7 -16 16 -12 8 -20 20 -16 25 3 5 2
8 -3 7 -4 -1 -42 32 -83 73 -163 162 -350 206 -577 134 -34 -11 -30 20 5 34
104 42 240 48 353 15z m-3828 -64 c39 -12 45 -25 24 -55 -10 -12 -16 -14 -21
-7 -4 7 -36 12 -79 12 -227 0 -432 -64 -657 -206 -99 -62 -156 -80 -223 -70
l-47 7 18 26 c26 40 161 143 249 190 93 50 242 101 327 113 80 11 361 5 409
-10z m194 -64 c1 -1 -349 -1046 -383 -1143 -20 -55 -30 -64 -41 -37 -12 33 -1
72 260 869 47 143 93 277 102 298 14 34 17 36 38 26 12 -6 23 -12 24 -13z
m3387 -7 c3 -17 6 -70 6 -116 0 -82 -1 -84 -22 -81 -30 4 -70 74 -62 108 8 32
8 39 -1 72 -6 24 -4 28 27 37 18 5 36 10 39 10 4 1 9 -13 13 -30z m234 -1 c47
-21 172 -137 172 -159 -1 -18 -74 -99 -90 -99 -6 0 -25 9 -40 20 -40 29 -110
51 -145 48 l-30 -3 -3 99 c-1 55 -1 105 2 112 6 16 77 7 134 -18z m-3387 -223
c120 -132 214 -306 265 -493 22 -83 13 -89 -16 -10 -71 197 -173 368 -297 498
-40 41 -73 76 -73 77 0 1 3 9 6 17 5 14 11 12 38 -12 17 -15 52 -50 77 -77z
m2723 4 c-26 -52 -60 -130 -76 -173 -39 -112 -63 -134 -38 -35 27 106 139 324
157 306 2 -3 -17 -47 -43 -98z m298 34 c15 -32 46 -87 69 -123 24 -36 57 -100
75 -142 18 -42 40 -90 49 -107 15 -30 15 -31 -9 -31 -21 0 -29 13 -66 100 -23
55 -60 125 -81 156 -64 91 -102 173 -88 190 18 22 23 18 51 -43z m-148 -65
c29 -50 26 -58 -46 -94 -64 -32 -70 -31 -54 14 21 58 55 122 66 122 5 0 20
-19 34 -42z m-2504 -4 c86 -37 127 -63 177 -115 42 -44 86 -127 98 -184 6 -26
4 -25 -13 10 -22 44 -90 115 -115 119 -9 1 -35 17 -57 35 -56 45 -114 68 -201
82 -56 9 -80 18 -96 36 -13 13 -23 28 -23 33 0 30 145 20 230 -16z m3286 -78
c13 -38 27 -91 30 -118 l7 -48 -40 0 c-38 0 -40 2 -52 43 -7 23 -24 59 -37 80
l-25 37 33 41 c17 22 38 38 47 37 8 -2 24 -34 37 -72z m-328 39 c67 -20 152
-97 180 -163 18 -41 45 -190 37 -200 -9 -10 -40 62 -46 107 -9 66 -48 124
-114 169 -40 27 -56 32 -105 32 -56 0 -75 9 -82 39 -2 10 8 17 27 22 46 10 48
10 103 -6z m-4038 -84 c-18 -10 -107 -26 -99 -17 6 6 75 24 99 25 13 0 13 -1
0 -8z m1037 -50 c23 -11 47 -29 53 -41 7 -12 16 -77 21 -144 10 -144 22 -223
49 -308 40 -126 48 -135 299 -309 63 -43 137 -86 165 -95 112 -36 298 -28 596
26 93 17 230 38 359 55 68 10 384 65 403 71 13 4 24 -11 49 -63 17 -37 53 -99
78 -138 63 -95 204 -236 269 -269 29 -15 51 -30 48 -35 -5 -7 -74 -25 -146
-36 -93 -15 -256 -48 -410 -83 -203 -47 -346 -73 -505 -92 -93 -11 -201 -27
-240 -35 -38 -8 -135 -23 -215 -35 -80 -11 -190 -29 -245 -40 -55 -10 -165
-26 -245 -35 -80 -9 -208 -24 -285 -35 -77 -10 -185 -22 -240 -25 -55 -4 -156
-13 -225 -21 -69 -8 -151 -14 -183 -14 l-59 0 54 41 c231 179 379 436 449 777
18 89 21 128 17 252 l-5 148 58 -5 c52 -5 58 -4 72 18 13 21 13 36 -4 134 -19
112 -57 240 -90 307 -11 21 -19 40 -19 43 0 11 36 4 77 -14z m1679 -58 c20
-51 11 -68 -16 -33 -29 37 -43 77 -35 97 6 17 7 17 21 -1 7 -11 21 -39 30 -63z
m-3324 44 l47 -12 -36 -55 c-33 -51 -92 -170 -141 -283 -34 -77 -72 -252 -72
-331 0 -28 -3 -37 -9 -27 -5 8 -7 30 -4 50 l5 36 -15 -27 c-8 -15 -14 -42 -13
-60 3 -32 -32 -116 -67 -163 -14 -18 -15 -16 -22 38 -14 113 17 377 60 517 32
102 105 254 147 305 24 28 35 35 52 30 12 -4 42 -12 68 -18z m1878 -50 c0 -5
-11 5 -25 21 -14 17 -25 34 -25 38 0 11 49 -48 50 -59z m-1597 -19 c-256 -236
-361 -678 -240 -1011 62 -171 210 -353 340 -418 71 -36 202 -63 267 -54 130
18 220 47 292 94 144 94 272 245 332 389 35 83 79 219 94 292 9 44 10 44 10
10 4 -127 -70 -349 -161 -486 -106 -160 -282 -292 -439 -329 -130 -31 -282
-13 -398 45 -126 64 -269 218 -335 361 -91 201 -94 505 -7 759 50 143 152 301
234 360 59 43 65 37 11 -12z m474 28 c6 -6 -42 -162 -58 -187 -3 -6 -24 -7
-47 -3 l-42 7 0 100 0 100 70 -5 c39 -3 74 -8 77 -12z m3920 -12 c28 -21 31
-28 23 -45 -17 -31 -56 -24 -69 12 -23 65 -9 75 46 33z m-4163 0 c3 -9 6 -58
6 -109 l0 -93 -51 -31 c-28 -18 -70 -52 -94 -76 -24 -25 -52 -45 -62 -45 -21
0 -54 20 -95 58 l-26 24 50 73 c65 95 109 137 188 180 75 40 76 40 84 19z
m3786 -18 c0 -9 -17 -15 -52 -18 -70 -7 -92 2 -47 18 47 17 99 17 99 0z
m-1701 -42 c7 -2 -14 -18 -48 -35 -40 -20 -76 -48 -104 -81 -23 -28 -54 -64
-68 -80 l-27 -29 -6 24 c-9 39 20 119 56 154 57 54 123 70 197 47z m2693 -103
c-1 -135 -70 -337 -164 -477 -131 -196 -368 -349 -571 -370 -207 -21 -428 100
-522 286 -14 28 -1 18 63 -47 90 -92 181 -156 256 -178 64 -19 205 -19 281 0
140 35 310 149 417 279 101 122 192 334 220 513 7 45 14 80 16 78 3 -2 4 -40
4 -84z m-287 12 c-10 -85 -43 -182 -71 -210 -13 -13 -22 -28 -20 -32 8 -12
-30 -84 -72 -137 -59 -75 -226 -194 -272 -194 -15 0 -13 180 3 184 6 2 33 8
60 15 75 18 139 52 185 100 57 58 69 84 91 195 24 119 33 136 73 136 l30 0 -7
-57z m-1108 31 c-3 -3 -12 -4 -19 -1 -8 3 -5 6 6 6 11 1 17 -2 13 -5z m-40
-10 c-3 -3 -12 -4 -19 -1 -8 3 -5 6 6 6 11 1 17 -2 13 -5z m-496 -38 c-6 -14
-15 -26 -21 -26 -6 0 -4 13 5 31 19 36 30 33 16 -5z m456 28 c-3 -3 -12 -4
-19 -1 -8 3 -5 6 6 6 11 1 17 -2 13 -5z m927 -75 c14 -17 26 -41 26 -54 l0
-24 -34 20 c-39 23 -20 26 -426 -61 -355 -75 -854 -147 -944 -135 l-58 7 34
17 c39 21 172 51 388 86 85 14 189 32 230 40 274 51 421 81 530 105 69 16 148
29 177 29 45 1 54 -2 77 -30z m-1734 3 c0 -51 -161 -129 -302 -146 -52 -6 -53
-5 -37 27 27 52 86 98 149 118 33 10 190 11 190 1z m-1990 -38 c0 -6 -13 -28
-30 -49 -36 -45 -37 -38 -8 32 14 35 24 49 30 41 4 -7 8 -18 8 -24z m177 -19
c6 -14 7 -23 2 -19 -13 8 -31 44 -22 44 4 0 13 -11 20 -25z m-537 -11 c0 -20
-27 -45 -76 -70 -79 -40 -139 -110 -164 -191 -39 -126 -20 -246 51 -327 54
-61 107 -88 176 -88 47 -1 62 4 111 38 59 41 113 116 132 184 5 19 10 81 10
138 0 56 4 102 9 102 5 0 15 -32 22 -71 39 -219 -108 -442 -291 -443 -235 -2
-363 315 -232 570 42 81 155 163 225 164 15 0 27 -3 27 -6z m-443 -115 c29
-23 56 -46 59 -50 3 -5 -6 -28 -20 -52 -15 -24 -26 -51 -26 -60 0 -31 -29 -47
-85 -47 l-54 0 6 38 c6 43 42 193 49 204 8 13 15 10 71 -33z m878 -11 c8 -29
16 -80 17 -113 l3 -60 -47 -3 c-44 -3 -48 -1 -48 20 -1 13 -9 48 -20 78 l-19
55 39 38 c22 20 44 37 49 37 6 0 17 -24 26 -52z m172 -156 c6 -85 -8 -212 -34
-302 -23 -80 -88 -208 -146 -285 -176 -236 -463 -319 -694 -202 -70 36 -74 48
-9 26 82 -27 200 -42 269 -36 84 8 149 32 230 84 223 142 356 425 345 729 -3
98 -3 100 15 83 14 -13 20 -37 24 -97z m3199 -52 c1 -41 -1 -87 -3 -101 l-4
-27 -60 14 c-65 15 -189 71 -229 103 -34 27 -21 36 80 50 47 6 108 18 135 25
78 22 80 21 81 -64z m-3360 -98 c-14 -107 -73 -272 -97 -272 -5 0 -22 14 -38
32 l-28 31 28 56 c15 31 32 83 39 116 16 87 15 85 61 85 l42 0 -7 -48z m-892
-24 c4 -24 22 -70 40 -104 l34 -61 -54 -64 c-30 -35 -59 -65 -64 -67 -24 -8
-67 125 -75 236 -8 101 -10 99 71 101 41 1 41 1 48 -41z m191 -296 c22 -17 61
-41 88 -52 l47 -21 0 -84 0 -85 -28 0 c-68 0 -197 53 -239 98 -61 65 -61 65 8
131 38 37 67 57 73 52 6 -4 29 -22 51 -39z m515 6 c16 -18 30 -38 30 -44 0
-19 -97 -107 -162 -147 -65 -39 -131 -62 -148 -52 -6 3 -10 42 -10 86 l0 79
33 0 c51 0 126 32 171 72 23 20 44 37 49 38 4 0 21 -15 37 -32z"/>
<path d="M6426 6951 c-4 -5 3 -7 14 -4 23 6 26 13 6 13 -8 0 -17 -4 -20 -9z"/>
<path d="M2784 5781 c-44 -20 -92 -80 -112 -140 -17 -48 -15 -180 3 -232 78
-220 295 -274 387 -95 27 51 35 172 18 248 -22 96 -88 189 -155 219 -51 24
-89 23 -141 0z m99 -77 c4 -4 -1 -14 -11 -23 -51 -49 -85 -93 -98 -127 l-15
-39 4 45 c2 25 12 61 21 81 22 46 79 82 99 63z"/>
<path d="M17278 8353 c-15 -4 -168 -207 -197 -262 -16 -29 -7 -83 18 -105 23
-21 93 -25 116 -6 20 17 179 247 188 273 4 10 0 34 -8 53 -18 45 -61 62 -117
47z"/>
<path d="M11265 8325 c-14 -13 -25 -36 -25 -50 0 -14 11 -37 25 -50 23 -24 31
-25 134 -25 60 0 117 3 126 6 26 10 46 59 36 87 -18 47 -46 57 -164 57 -101 0
-109 -2 -132 -25z"/>
<path d="M16223 8246 l-28 -24 0 -569 0 -568 29 -63 c66 -142 231 -228 301
-157 25 24 33 73 19 109 -3 9 -33 30 -65 47 -45 25 -63 41 -79 73 -19 41 -20
60 -20 575 0 561 -1 578 -45 595 -36 13 -84 6 -112 -18z"/>
<path d="M14147 8160 c-119 -32 -193 -76 -292 -175 -144 -143 -199 -278 -199
-480 0 -172 39 -287 141 -415 90 -112 207 -188 348 -225 79 -20 260 -21 340 0
178 45 337 177 418 346 47 98 67 170 67 244 0 100 -13 105 -285 105 -229 0
-261 -6 -285 -49 -17 -33 -11 -78 14 -108 l24 -28 159 -3 c87 -2 162 -7 167
-12 14 -14 -40 -114 -94 -172 -119 -130 -295 -184 -469 -143 -87 21 -150 57
-221 128 -162 159 -184 416 -54 612 46 70 101 117 186 159 182 92 383 61 551
-84 48 -41 65 -50 97 -50 30 0 43 6 64 31 37 44 34 80 -11 130 -79 87 -191
155 -314 189 -96 26 -255 27 -352 0z"/>
<path d="M15375 7835 c-180 -39 -238 -130 -133 -208 l27 -20 88 26 c132 41
205 35 295 -22 48 -31 111 -106 105 -125 -2 -7 -80 -13 -223 -16 l-219 -5 -55
-31 c-104 -59 -157 -164 -148 -295 13 -175 142 -295 331 -306 99 -7 189 14
260 57 27 17 52 30 57 30 5 0 15 -12 22 -27 33 -68 127 -70 160 -3 16 31 18
67 18 292 0 154 -5 278 -11 310 -55 256 -300 403 -574 343z m395 -574 c0 -28
-48 -112 -88 -154 -54 -56 -124 -87 -194 -87 -73 0 -114 17 -156 64 -26 30
-32 45 -32 82 0 39 5 51 34 80 l34 34 201 0 c189 0 201 -1 201 -19z"/>
<path d="M17065 7840 c-114 -20 -197 -63 -266 -137 -194 -207 -186 -542 17
-732 101 -95 194 -130 344 -131 133 0 247 39 328 113 46 43 17 138 -47 152
-23 5 -45 -2 -96 -29 -94 -50 -161 -63 -238 -47 -34 7 -74 19 -89 27 -70 36
-158 142 -158 191 l0 23 348 0 349 0 21 23 c63 67 19 276 -83 395 -99 115
-279 178 -430 152z m188 -212 c53 -23 147 -118 147 -149 0 -18 -10 -19 -263
-19 -145 0 -267 3 -270 6 -9 9 9 39 50 85 93 102 212 130 336 77z"/>
<path d="M11265 6854 c-30 -32 -32 -63 -6 -95 18 -23 25 -24 141 -24 121 0
122 0 146 28 31 36 30 62 -1 92 -23 24 -30 25 -140 25 -113 0 -117 -1 -140
-26z"/>
<path d="M15970 5175 l0 -45 45 0 45 0 0 45 0 45 -45 0 -45 0 0 -45z m80 0 c0
-33 -2 -35 -35 -35 -33 0 -35 2 -35 35 0 33 2 35 35 35 33 0 35 -2 35 -35z"/>
<path d="M17510 4950 l0 -270 45 0 45 0 0 270 0 270 -45 0 -45 0 0 -270z m80
0 l0 -260 -35 0 -35 0 0 260 0 260 35 0 35 0 0 -260z"/>
<path d="M11570 4895 l0 -215 40 0 40 0 0 90 0 90 90 0 90 0 0 35 0 35 -90 0
-90 0 0 55 0 55 105 0 105 0 0 35 0 35 -145 0 -145 0 0 -215z"/>
<path d="M12548 5072 c-29 -19 -38 -31 -38 -53 0 -22 -5 -29 -20 -29 -16 0
-20 -7 -20 -30 0 -23 4 -30 20 -30 19 0 20 -7 20 -105 0 -99 2 -107 25 -130
37 -38 115 -31 115 11 0 17 -6 23 -27 26 l-28 3 -3 98 -3 97 26 0 c21 0 25 5
25 30 0 25 -4 30 -25 30 -22 0 -24 4 -27 54 l-3 53 -37 -25z"/>
<path d="M13375 5066 c-17 -7 -36 -20 -44 -29 -19 -24 -31 -21 -31 8 0 23 -4
25 -45 25 l-45 0 0 -270 0 -270 50 0 50 0 0 95 c0 52 2 95 5 95 3 0 20 -10 36
-22 61 -45 150 -26 201 43 27 36 43 127 32 180 -9 41 -9 38 -9 -36 0 -93 -19
-143 -69 -178 -43 -30 -110 -30 -153 1 -18 13 -37 20 -43 17 -5 -3 -10 -46
-10 -96 l0 -89 -40 0 -40 0 0 260 0 260 35 0 c28 0 35 -4 35 -19 0 -30 19 -35
43 -13 25 23 69 42 99 42 36 0 89 -32 114 -69 13 -19 24 -30 24 -24 0 20 -53
75 -87 89 -40 17 -69 17 -108 0z"/>
<path d="M13785 5049 l-35 -31 0 26 c0 24 -3 26 -45 26 l-45 0 0 -195 0 -195
50 0 50 0 -2 108 -2 107 -3 -102 -4 -103 -39 0 -40 0 0 185 0 185 35 0 c28 0
35 -4 35 -19 0 -32 16 -32 49 -1 31 30 48 35 88 24 20 -6 21 -8 9 -42 -11 -30
-18 -36 -36 -34 -39 6 -67 -7 -80 -37 -6 -17 -10 -36 -7 -43 3 -7 6 -4 6 7 1
11 8 31 17 44 14 19 23 22 55 18 37 -5 38 -4 53 39 15 45 15 45 -10 54 -41 16
-61 12 -99 -21z"/>
<path d="M14140 5073 c92 -16 148 -54 176 -118 7 -16 13 -23 14 -14 0 25 -56
97 -90 114 -17 9 -52 18 -78 19 -26 2 -36 2 -22 -1z"/>
<path d="M14570 5069 c-14 -6 -35 -20 -47 -31 l-23 -21 0 26 c0 25 -3 27 -45
27 l-45 0 0 -195 0 -195 50 0 50 0 0 134 c0 120 2 136 21 160 13 17 15 24 6
20 -28 -10 -37 -55 -37 -179 l0 -125 -40 0 -40 0 0 185 0 185 35 0 c27 0 35
-4 35 -18 0 -31 11 -32 48 -4 50 38 119 38 159 0 36 -34 40 -34 74 -2 57 55
162 34 186 -36 8 -24 12 -28 12 -14 2 52 -78 103 -142 90 -16 -3 -45 -17 -63
-31 -29 -22 -33 -23 -45 -8 -31 37 -100 51 -149 32z"/>
<path d="M15260 5073 c92 -16 148 -54 176 -118 7 -16 13 -23 14 -14 0 25 -56
97 -90 114 -17 9 -52 18 -78 19 -26 2 -36 2 -22 -1z"/>
<path d="M15649 5071 c-62 -20 -120 -87 -119 -138 1 -10 7 0 15 22 48 134 247
156 310 34 15 -28 15 -29 -9 -29 -13 0 -31 -3 -39 -6 -10 -3 -18 2 -21 14 -4
11 -14 23 -23 27 -15 5 -15 4 0 -13 9 -10 17 -24 17 -30 0 -8 15 -10 48 -5 26
3 49 7 51 9 9 8 -44 83 -70 98 -34 20 -122 29 -160 17z"/>
<path d="M16267 5065 c-47 -16 -81 -46 -101 -90 -26 -55 -18 -63 9 -9 36 72
81 99 165 99 54 0 73 -5 102 -24 44 -31 77 -79 85 -124 22 -137 -83 -253 -211
-233 -98 16 -143 62 -163 166 l-13 65 5 -59 c9 -96 48 -148 133 -172 133 -39
245 35 259 170 16 156 -122 264 -270 211z"/>
<path d="M16796 5070 c-16 -5 -39 -19 -52 -31 l-24 -22 0 26 c0 26 -2 27 -50
27 l-50 0 0 -195 0 -195 55 0 55 0 0 135 c0 131 1 137 25 160 30 31 75 33 100
5 16 -17 19 -43 23 -160 l5 -140 49 0 50 0 -3 158 c-4 177 -12 202 -74 228
-38 16 -66 17 -109 4z m109 -14 c52 -22 59 -44 63 -213 l4 -153 -41 0 -41 0 0
103 c-1 168 -18 217 -76 217 -36 0 -71 -20 -83 -47 -6 -13 -11 -79 -11 -148
l0 -125 -45 0 -45 0 0 185 0 185 40 0 c36 0 40 -2 40 -25 0 -31 12 -32 46 -2
43 38 94 46 149 23z"/>
<path d="M17166 5070 c-35 -11 -64 -36 -82 -72 -8 -15 -14 -29 -14 -31 0 -2
19 -7 42 -10 35 -5 44 -2 60 19 37 46 134 24 126 -30 -2 -17 -15 -24 -63 -34
-140 -31 -175 -58 -175 -135 0 -93 133 -140 215 -75 22 17 29 19 36 7 5 -8 9
-17 9 -21 0 -5 22 -8 50 -8 49 0 49 0 40 26 -6 14 -10 78 -10 142 0 146 -10
187 -53 208 -37 19 -140 27 -181 14z m182 -27 c35 -26 40 -53 44 -216 l3 -137
-33 0 c-25 0 -35 5 -39 20 -7 26 -18 25 -56 -2 -23 -17 -46 -23 -84 -23 -44 0
-56 5 -82 29 -48 46 -39 125 19 156 10 5 51 17 91 25 80 17 99 28 99 56 0 57
-100 81 -143 35 -19 -20 -29 -23 -56 -18 l-32 7 23 35 c13 20 39 40 58 48 50
17 156 9 188 -15z"/>
<path d="M17250 4853 c-63 -11 -90 -25 -97 -50 -9 -39 29 -67 82 -60 49 7 77
38 73 81 -3 32 -13 37 -58 29z m50 -32 c0 -53 -70 -88 -121 -61 -22 12 -25 43
-5 59 12 10 74 26 114 30 7 1 12 -11 12 -28z"/>
<path d="M14078 5063 c7 -3 16 -2 19 1 4 3 -2 6 -13 5 -11 0 -14 -3 -6 -6z"/>
<path d="M15198 5063 c7 -3 16 -2 19 1 4 3 -2 6 -13 5 -11 0 -14 -3 -6 -6z"/>
<path d="M15970 4875 l0 -195 45 0 45 0 0 195 0 195 -45 0 -45 0 0 -195z m80
0 l0 -185 -35 0 -35 0 0 185 0 185 35 0 35 0 0 -185z"/>
<path d="M14012 5035 c-29 -24 -62 -81 -62 -106 0 -7 11 9 25 37 14 27 39 59
57 72 18 12 28 22 21 22 -6 0 -25 -11 -41 -25z"/>
<path d="M15132 5035 c-29 -24 -62 -81 -62 -106 0 -7 11 9 25 37 14 27 39 59
57 72 18 12 28 22 21 22 -6 0 -25 -11 -41 -25z"/>
<path d="M13339 4981 c-16 -16 -29 -35 -29 -43 0 -7 9 2 20 19 36 59 111 55
142 -7 11 -22 18 -28 18 -17 0 31 -54 77 -90 77 -22 0 -41 -9 -61 -29z"/>
<path d="M14123 5003 c9 -2 25 -2 35 0 9 3 1 5 -18 5 -19 0 -27 -2 -17 -5z"/>
<path d="M14585 5003 c50 -7 55 -23 55 -180 l0 -143 49 0 49 0 4 134 c3 126 5
136 27 160 28 30 72 34 92 9 10 -11 15 -57 17 -160 l4 -143 49 0 49 0 -2 143
-2 142 -3 -137 -4 -138 -39 0 -40 0 0 118 c0 178 -19 217 -95 198 -48 -12 -60
-48 -64 -188 l-3 -128 -39 0 -39 0 0 138 c0 159 -9 183 -63 181 l-32 -2 30 -4z"/>
<path d="M15243 5003 c9 -2 25 -2 35 0 9 3 1 5 -18 5 -19 0 -27 -2 -17 -5z"/>
<path d="M15663 4998 c-32 -15 -45 -56 -40 -129 l3 -64 2 71 c2 86 20 113 78
124 34 7 35 8 9 8 -16 0 -40 -4 -52 -10z"/>
<path d="M16289 4995 c-29 -16 -59 -79 -59 -123 1 -48 34 -107 70 -122 54 -22
100 -4 128 50 27 54 28 92 2 148 -27 59 -83 78 -141 47z m104 -16 c56 -43 60
-148 7 -201 -78 -78 -187 24 -151 142 14 46 53 80 91 80 15 0 39 -9 53 -21z"/>
<path d="M12031 4974 c-30 -25 -31 -25 -31 -5 0 17 -6 21 -35 21 l-35 0 0
-155 0 -155 40 0 40 0 0 93 c0 116 12 142 62 141 32 -1 37 2 46 33 9 28 8 35
-8 43 -29 16 -46 12 -79 -16z"/>
<path d="M12223 4986 c-89 -40 -109 -202 -34 -276 51 -52 168 -48 210 7 29 35
27 40 -16 45 -29 4 -41 0 -51 -14 -20 -27 -66 -23 -91 8 -39 49 -31 54 85 54
l107 0 -6 45 c-8 56 -30 100 -60 120 -35 22 -106 28 -144 11z m100 -58 c9 -7
19 -25 23 -40 l6 -28 -66 0 c-74 0 -81 9 -45 54 22 28 55 34 82 14z"/>
<path d="M12763 4986 c-89 -40 -109 -202 -34 -276 51 -52 168 -48 210 7 29 35
27 40 -16 45 -29 4 -41 0 -51 -14 -20 -27 -66 -23 -91 8 -39 49 -31 54 85 54
l107 0 -6 45 c-8 56 -30 100 -60 120 -35 22 -106 28 -144 11z m100 -58 c9 -7
19 -25 23 -40 l6 -28 -66 0 c-74 0 -81 9 -45 54 22 28 55 34 82 14z"/>
<path d="M14077 4988 c-20 -16 -47 -79 -47 -112 0 -39 30 -105 53 -118 18 -9
18 -7 -5 20 -48 57 -49 136 -2 192 28 32 28 38 1 18z"/>
<path d="M14202 4971 c49 -57 49 -135 0 -193 -15 -18 -20 -29 -12 -27 21 7 60
87 60 124 0 37 -39 117 -60 124 -8 2 -3 -9 12 -28z"/>
<path d="M15197 4988 c-20 -16 -47 -79 -47 -112 0 -39 30 -105 53 -118 18 -9
18 -7 -5 20 -48 57 -49 136 -2 192 28 32 28 38 1 18z"/>
<path d="M15322 4971 c49 -57 49 -135 0 -193 -15 -18 -20 -29 -12 -27 21 7 60
87 60 124 0 37 -39 117 -60 124 -8 2 -3 -9 12 -28z"/>
<path d="M13303 4880 c0 -25 2 -35 4 -22 2 12 2 32 0 45 -2 12 -4 2 -4 -23z"/>
<path d="M14332 4885 c-1 -22 -5 -51 -7 -65 l-6 -25 11 25 c6 13 9 42 7 65
l-4 40 -1 -40z"/>
<path d="M15452 4885 c-1 -22 -5 -51 -7 -65 l-6 -25 11 25 c6 13 9 42 7 65
l-4 40 -1 -40z"/>
<path d="M13493 4875 c0 -22 2 -30 4 -17 2 12 2 30 0 40 -3 9 -5 -1 -4 -23z"/>
<path d="M13941 4879 c1 -19 5 -45 9 -59 6 -16 7 -6 3 30 -7 63 -13 80 -12 29z"/>
<path d="M15061 4879 c1 -19 5 -45 9 -59 6 -16 7 -6 3 30 -7 63 -13 80 -12 29z"/>
<path d="M15523 4875 c0 -22 2 -30 4 -17 2 12 2 30 0 40 -3 9 -5 -1 -4 -23z"/>
<path d="M13310 4817 c0 -27 54 -77 84 -77 37 0 72 19 85 47 18 39 12 51 -7
13 -10 -20 -29 -39 -44 -44 -41 -14 -80 3 -100 44 -11 22 -18 28 -18 17z"/>
<path d="M15530 4817 c0 -33 39 -95 74 -116 19 -12 56 -23 83 -25 26 -2 37 -2
23 1 -96 17 -140 48 -165 119 -8 22 -14 31 -15 21z"/>
<path d="M15773 4789 c-12 -22 -17 -37 -12 -33 5 3 16 18 23 33 13 23 19 27
50 23 20 -2 36 -9 36 -16 0 -17 -36 -68 -62 -88 -13 -10 -18 -18 -12 -18 27 0
100 109 83 124 -2 2 -22 6 -44 8 -39 5 -42 4 -62 -33z"/>
<path d="M15630 4792 c0 -20 53 -52 84 -51 29 1 28 2 -8 9 -22 4 -48 18 -58
30 -10 12 -18 18 -18 12z"/>
<path d="M13960 4783 c0 -29 63 -83 113 -98 60 -18 79 -18 130 -4 36 10 117
78 117 99 0 5 -19 -11 -41 -35 -28 -30 -55 -49 -82 -56 -78 -21 -172 10 -213
70 -13 19 -24 30 -24 24z"/>
<path d="M15080 4783 c0 -29 63 -83 113 -98 60 -18 79 -18 130 -4 36 10 117
78 117 99 0 5 -19 -11 -41 -35 -28 -30 -55 -49 -82 -56 -78 -21 -172 10 -213
70 -13 19 -24 30 -24 24z"/>
<path d="M14123 4743 c9 -2 25 -2 35 0 9 3 1 5 -18 5 -19 0 -27 -2 -17 -5z"/>
<path d="M15243 4743 c9 -2 25 -2 35 0 9 3 1 5 -18 5 -19 0 -27 -2 -17 -5z"/>
<path d="M15758 4683 c7 -3 16 -2 19 1 4 3 -2 6 -13 5 -11 0 -14 -3 -6 -6z"/>
<path d="M15010 4295 l0 -215 40 0 40 0 0 215 0 215 -40 0 -40 0 0 -215z"/>
<path d="M15180 4475 c0 -34 1 -35 40 -35 39 0 40 1 40 35 0 34 -1 35 -40 35
-39 0 -40 -1 -40 -35z"/>
<path d="M15880 4475 c0 -34 1 -35 40 -35 39 0 40 1 40 35 0 34 -1 35 -40 35
-39 0 -40 -1 -40 -35z"/>
<path d="M16790 4436 l0 -74 -37 20 c-65 33 -142 7 -169 -57 -20 -49 -18 -143
4 -185 36 -69 126 -88 178 -39 l24 22 0 -21 c0 -19 6 -22 40 -22 l40 0 0 215
0 215 -40 0 -40 0 0 -74z m-27 -114 c37 -41 29 -160 -13 -182 -55 -30 -100 13
-100 95 0 38 6 60 21 79 24 31 68 35 92 8z"/>
<path d="M17333 4367 c7 -158 11 -177 37 -177 22 0 27 31 36 198 l7 122 -43 0
-43 0 6 -143z"/>
<path d="M13098 4472 c-29 -19 -38 -31 -38 -53 0 -22 -5 -29 -20 -29 -16 0
-20 -7 -20 -30 0 -23 4 -30 20 -30 19 0 20 -7 20 -105 0 -99 2 -107 25 -130
37 -38 115 -31 115 11 0 17 -6 23 -27 26 l-28 3 -3 98 -3 97 26 0 c21 0 25 5
25 30 0 25 -4 30 -25 30 -22 0 -24 4 -27 54 l-3 53 -37 -25z"/>
<path d="M16098 4472 c-29 -19 -38 -31 -38 -53 0 -22 -5 -29 -20 -29 -16 0
-20 -7 -20 -30 0 -23 4 -30 20 -30 19 0 20 -7 20 -109 0 -84 3 -113 15 -125
22 -22 52 -29 91 -21 27 5 34 11 34 30 0 18 -6 24 -27 27 l-28 3 -3 98 -3 97
26 0 c21 0 25 5 25 30 0 25 -4 30 -25 30 -22 0 -24 4 -27 54 l-3 53 -37 -25z"/>
<path d="M11890 4393 c-8 -3 -25 -15 -37 -26 l-23 -20 0 21 c0 19 -6 22 -40
22 l-40 0 0 -215 0 -215 40 0 40 0 0 75 c0 75 7 88 30 60 20 -24 74 -29 114
-10 99 47 101 252 3 298 -35 17 -60 20 -87 10z m59 -79 c46 -59 16 -184 -45
-184 -50 0 -81 58 -71 131 10 77 74 106 116 53z"/>
<path d="M12180 4378 c-54 -28 -80 -74 -80 -143 0 -70 25 -115 80 -143 108
-56 230 19 230 141 0 67 -31 121 -85 147 -53 26 -91 25 -145 -2z m129 -64 c15
-19 21 -41 21 -79 0 -68 -27 -105 -75 -105 -48 0 -75 37 -75 105 0 68 27 105
75 105 24 0 39 -7 54 -26z"/>
<path d="M12581 4374 c-30 -25 -31 -25 -31 -5 0 17 -6 21 -35 21 l-35 0 0
-155 0 -155 40 0 40 0 0 93 c0 116 12 142 62 141 32 -1 37 2 46 33 9 28 8 35
-8 43 -29 16 -46 12 -79 -16z"/>
<path d="M13313 4386 c-89 -40 -109 -202 -34 -276 51 -52 168 -48 210 7 29 35
27 40 -16 45 -29 4 -41 0 -51 -14 -20 -27 -66 -23 -91 8 -39 49 -31 54 85 54
l107 0 -6 45 c-8 56 -30 100 -60 120 -35 22 -106 28 -144 11z m100 -58 c9 -7
19 -25 23 -40 l6 -28 -66 0 c-74 0 -81 9 -45 54 22 28 55 34 82 14z"/>
<path d="M13710 4389 c-13 -6 -33 -17 -42 -26 -17 -15 -18 -15 -18 5 0 18 -6
22 -35 22 l-35 0 0 -155 0 -155 40 0 40 0 0 108 c0 124 11 152 61 152 40 0 49
-27 49 -156 l0 -104 40 0 40 0 0 113 c0 98 3 116 18 130 22 20 53 22 70 5 8
-8 12 -52 12 -130 l0 -118 40 0 40 0 0 129 c0 114 -2 131 -20 154 -29 37 -79
44 -131 19 -41 -20 -41 -20 -73 -1 -34 21 -58 23 -96 8z"/>
<path d="M14250 4393 c-8 -3 -25 -15 -37 -26 l-23 -20 0 21 c0 19 -6 22 -40
22 l-40 0 0 -215 0 -215 40 0 40 0 0 75 c0 75 7 88 30 60 20 -24 74 -29 114
-10 99 47 101 252 3 298 -35 17 -60 20 -87 10z m59 -79 c46 -59 16 -184 -45
-184 -50 0 -81 58 -71 131 10 77 74 106 116 53z"/>
<path d="M14550 4378 c-54 -28 -80 -74 -80 -143 0 -70 25 -115 80 -143 108
-56 230 19 230 141 0 67 -31 121 -85 147 -53 26 -91 25 -145 -2z m129 -64 c15
-19 21 -41 21 -79 0 -68 -27 -105 -75 -105 -48 0 -75 37 -75 105 0 68 27 105
75 105 24 0 39 -7 54 -26z"/>
<path d="M15480 4389 c-13 -6 -33 -17 -42 -26 -17 -15 -18 -15 -18 5 0 18 -6
22 -35 22 l-35 0 0 -155 0 -155 40 0 40 0 0 108 c0 124 11 152 61 152 40 0 49
-27 49 -156 l0 -104 40 0 40 0 0 113 c0 98 3 116 18 130 22 20 53 22 70 5 8
-8 12 -52 12 -130 l0 -118 40 0 40 0 0 129 c0 114 -2 131 -20 154 -29 37 -79
44 -131 19 -41 -20 -41 -20 -73 -1 -34 21 -58 23 -96 8z"/>
<path d="M16312 4389 c-20 -6 -40 -22 -52 -42 l-20 -32 33 -7 c24 -5 37 -2 53
13 28 26 80 25 94 -2 7 -11 9 -24 5 -27 -4 -4 -41 -16 -83 -27 -70 -18 -79
-23 -96 -56 -47 -88 43 -167 140 -123 21 10 42 20 47 22 4 2 7 -3 7 -12 0 -12
10 -16 39 -16 l40 0 -10 32 c-5 18 -9 79 -9 135 0 90 -2 104 -21 121 -33 31
-101 40 -167 21z m118 -183 c0 -57 -68 -97 -104 -60 -31 31 -16 55 44 72 53
15 60 14 60 -12z"/>
<path d="M17020 4378 c-56 -29 -80 -73 -80 -148 0 -73 26 -115 87 -142 145
-64 277 87 202 233 -14 29 -32 46 -62 60 -55 25 -93 24 -147 -3z m125 -63 c21
-20 25 -34 25 -80 0 -46 -4 -60 -25 -80 -57 -58 -125 -15 -125 80 0 95 68 138
125 80z"/>
<path d="M15180 4235 l0 -155 40 0 40 0 0 155 0 155 -40 0 -40 0 0 -155z"/>
<path d="M15880 4235 l0 -155 40 0 40 0 0 155 0 155 -40 0 -40 0 0 -155z"/>
<path d="M17330 4120 l0 -40 40 0 40 0 0 40 0 40 -40 0 -40 0 0 -40z"/>
<path d="M11600 2305 l0 -145 110 0 110 0 0 25 c0 25 -1 25 -85 25 l-85 0 0
40 0 40 75 0 c73 0 75 1 75 25 0 24 -2 25 -75 25 l-75 0 0 30 0 30 80 0 c79 0
80 0 80 25 l0 25 -105 0 -105 0 0 -145z"/>
<path d="M15490 2400 c0 -27 -2 -50 -4 -50 -1 0 -17 5 -35 11 -64 23 -111 -20
-111 -102 0 -31 7 -47 29 -70 33 -32 65 -37 99 -13 20 14 22 14 22 0 0 -10 9
-16 25 -16 l25 0 0 145 0 145 -25 0 c-23 0 -25 -3 -25 -50z m-22 -83 c36 -43
15 -117 -33 -117 -27 0 -45 25 -45 65 0 14 5 35 10 46 12 21 52 25 68 6z"/>
<path d="M15930 2305 l0 -145 25 0 25 0 0 145 0 145 -25 0 -25 0 0 -145z"/>
<path d="M16420 2430 c0 -15 7 -20 25 -20 18 0 25 5 25 20 0 15 -7 20 -25 20
-18 0 -25 -5 -25 -20z"/>
<path d="M17130 2305 l0 -145 25 0 c14 0 25 4 25 10 0 6 10 6 27 -1 63 -24
115 18 117 95 2 79 -63 129 -119 92 l-25 -16 0 55 c0 52 -1 55 -25 55 l-25 0
0 -145z m128 13 c7 -7 12 -30 12 -53 0 -46 -13 -65 -47 -65 -25 0 -43 26 -43
65 0 55 45 86 78 53z"/>
<path d="M12128 2419 c-10 -5 -18 -19 -18 -29 0 -11 -4 -20 -10 -20 -5 0 -10
-9 -10 -20 0 -11 5 -20 10 -20 6 0 10 -28 10 -63 0 -76 19 -110 58 -105 28 3
45 38 19 38 -20 0 -27 22 -27 81 0 42 3 49 20 49 13 0 20 7 20 20 0 13 -7 20
-20 20 -16 0 -20 7 -20 30 0 32 -5 35 -32 19z"/>
<path d="M14998 2419 c-10 -5 -18 -19 -18 -29 0 -11 -4 -20 -10 -20 -5 0 -10
-9 -10 -20 0 -11 5 -20 10 -20 6 0 10 -28 10 -63 0 -76 19 -110 58 -105 28 3
45 38 19 38 -20 0 -27 22 -27 81 0 42 3 49 20 49 13 0 20 7 20 20 0 13 -7 20
-20 20 -16 0 -20 7 -20 30 0 32 -5 35 -32 19z"/>
<path d="M16058 2419 c-10 -5 -18 -19 -18 -29 0 -11 -4 -20 -10 -20 -5 0 -10
-9 -10 -20 0 -11 5 -20 10 -20 6 0 10 -28 10 -63 0 -76 19 -110 58 -105 28 3
45 38 19 38 -20 0 -27 22 -27 81 0 42 3 49 20 49 13 0 20 7 20 20 0 13 -7 20
-20 20 -16 0 -20 7 -20 30 0 32 -5 35 -32 19z"/>
<path d="M16798 2419 c-10 -5 -18 -19 -18 -29 0 -11 -4 -20 -10 -20 -5 0 -10
-9 -10 -20 0 -11 5 -20 10 -20 6 0 10 -28 10 -63 0 -76 19 -110 58 -105 28 3
45 38 19 38 -20 0 -27 22 -27 81 0 42 3 49 20 49 13 0 20 7 20 20 0 13 -7 20
-20 20 -16 0 -20 7 -20 30 0 32 -5 35 -32 19z"/>
<path d="M11860 2265 l0 -105 25 0 c24 0 25 2 25 68 0 78 14 106 51 100 23 -3
24 -7 27 -85 l3 -83 29 0 30 0 0 73 c0 83 -14 118 -54 132 -21 7 -34 6 -57 -7
-24 -14 -29 -15 -29 -3 0 9 -10 15 -25 15 l-25 0 0 -105z"/>
<path d="M12240 2265 l0 -105 25 0 c24 0 25 2 25 68 0 70 10 92 42 92 9 0 22
9 28 19 8 16 6 21 -10 26 -10 3 -28 1 -40 -5 -13 -7 -20 -7 -20 0 0 5 -11 10
-25 10 l-25 0 0 -105z"/>
<path d="M12419 2342 c-26 -23 -31 -35 -31 -73 0 -26 6 -56 14 -68 27 -44 117
-51 152 -12 16 17 15 19 -9 23 -14 3 -28 1 -31 -3 -8 -13 -48 -11 -62 3 -28
28 -13 38 58 38 l70 0 -6 28 c-10 48 -26 71 -57 82 -46 16 -64 12 -98 -18z
m89 -24 c24 -24 13 -38 -28 -38 -26 0 -40 5 -40 13 0 18 21 37 40 37 9 0 21
-5 28 -12z"/>
<path d="M12639 2341 c-24 -24 -29 -38 -29 -76 0 -39 5 -52 30 -77 31 -30 50
-33 103 -13 21 9 23 -13 3 -40 -12 -17 -19 -18 -70 -9 -43 8 -56 8 -56 -1 0
-34 76 -54 133 -36 47 16 57 47 57 177 l0 104 -25 0 c-16 0 -25 -6 -25 -16 0
-14 -2 -14 -22 0 -34 24 -66 19 -99 -13z m102 -27 c7 -9 13 -31 13 -49 0 -41
-19 -65 -50 -65 -26 0 -44 26 -44 65 0 58 49 88 81 49z"/>
<path d="M12893 2360 c-12 -5 -26 -18 -32 -28 -9 -17 -7 -20 14 -25 16 -3 29
1 34 10 12 22 56 13 56 -11 0 -15 -11 -23 -46 -31 -63 -16 -69 -21 -69 -55 0
-51 62 -77 107 -45 19 13 22 13 27 0 3 -8 16 -15 28 -15 23 0 23 1 17 86 -5
75 -9 90 -28 105 -24 20 -71 24 -108 9z m77 -125 c0 -18 -7 -26 -24 -31 -46
-11 -66 29 -23 46 36 15 47 11 47 -15z"/>
<path d="M13090 2265 c0 -105 0 -105 25 -105 23 0 24 3 27 76 3 81 17 104 52
91 13 -5 16 -22 16 -87 0 -79 0 -80 25 -80 24 0 25 3 25 59 0 74 13 111 39
111 29 0 41 -30 41 -104 0 -64 1 -66 25 -66 24 0 25 2 25 74 0 41 -4 86 -9 99
-13 33 -63 45 -97 22 -22 -14 -27 -14 -46 0 -28 19 -45 19 -80 1 -24 -13 -28
-13 -28 0 0 8 -9 14 -20 14 -19 0 -20 -7 -20 -105z"/>
<path d="M13485 2357 c-51 -23 -73 -107 -40 -154 19 -27 76 -46 114 -38 74 16
104 117 50 170 -30 31 -83 40 -124 22z m86 -43 c7 -9 13 -31 13 -49 0 -39 -19
-65 -47 -65 -50 0 -76 72 -40 112 20 22 56 23 74 2z"/>
<path d="M13713 2360 c-26 -11 -41 -56 -26 -79 6 -9 34 -23 64 -32 31 -10 54
-22 54 -30 0 -17 -51 -24 -69 -10 -7 6 -24 7 -40 3 l-28 -8 22 -19 c30 -27
120 -27 149 -1 14 13 21 29 19 45 -3 22 -12 29 -65 46 -47 14 -63 24 -63 37 0
13 8 18 28 18 15 0 32 -4 38 -10 12 -12 56 -1 51 14 -10 30 -87 45 -134 26z"/>
<path d="M14020 2225 l0 -145 25 0 c24 0 25 3 25 55 l0 55 25 -16 c73 -47 149
48 111 139 -19 46 -56 63 -103 49 -19 -6 -33 -6 -33 -1 0 5 -11 9 -25 9 l-25
0 0 -145z m131 89 c29 -35 9 -114 -29 -114 -42 0 -66 64 -42 111 13 23 53 25
71 3z"/>
<path d="M14293 2360 c-12 -5 -26 -18 -32 -28 -9 -17 -7 -20 14 -25 16 -3 29
1 34 10 12 22 56 13 56 -11 0 -15 -11 -23 -46 -31 -63 -16 -69 -21 -69 -55 0
-51 62 -77 107 -45 19 13 22 13 27 0 3 -8 16 -15 28 -15 23 0 23 1 17 86 -5
75 -9 90 -28 105 -24 20 -71 24 -108 9z m77 -125 c0 -18 -7 -26 -24 -31 -46
-11 -66 29 -23 46 36 15 47 11 47 -15z"/>
<path d="M14490 2265 l0 -105 25 0 c24 0 25 2 25 68 0 70 10 92 42 92 9 0 22
9 28 19 8 16 6 21 -10 26 -10 3 -28 1 -40 -5 -13 -7 -20 -7 -20 0 0 5 -11 10
-25 10 l-25 0 0 -105z"/>
<path d="M14673 2360 c-12 -5 -26 -18 -32 -28 -9 -17 -7 -20 14 -25 16 -3 29
1 34 10 12 22 56 13 56 -11 0 -15 -11 -23 -46 -31 -63 -16 -69 -21 -69 -55 0
-51 62 -77 107 -45 19 13 22 13 27 0 3 -8 16 -15 28 -15 23 0 23 1 17 86 -5
75 -9 90 -28 105 -24 20 -71 24 -108 9z m77 -125 c0 -18 -7 -26 -24 -31 -46
-11 -66 29 -23 46 36 15 47 11 47 -15z"/>
<path d="M15155 2357 c-51 -23 -73 -107 -40 -154 19 -27 76 -46 114 -38 74 16
104 117 50 170 -30 31 -83 40 -124 22z m86 -43 c7 -9 13 -31 13 -49 0 -39 -19
-65 -47 -65 -50 0 -76 72 -40 112 20 22 56 23 74 2z"/>
<path d="M15633 2360 c-12 -5 -26 -18 -32 -28 -9 -17 -7 -20 14 -25 16 -3 29
1 34 10 12 22 56 13 56 -11 0 -15 -11 -23 -46 -31 -63 -16 -69 -21 -69 -55 0
-51 62 -77 107 -45 19 13 22 13 27 0 3 -8 16 -15 28 -15 23 0 23 1 17 86 -5
75 -9 90 -28 105 -24 20 -71 24 -108 9z m77 -125 c0 -18 -7 -26 -24 -31 -46
-11 -66 29 -23 46 36 15 47 11 47 -15z"/>
<path d="M16180 2285 c0 -72 3 -88 20 -105 24 -24 54 -25 93 -6 23 13 27 13
27 0 0 -8 10 -14 25 -14 l25 0 0 105 0 105 -30 0 -29 0 -3 -76 c-2 -60 -7 -79
-20 -88 -13 -8 -23 -8 -35 0 -14 9 -19 28 -21 88 -3 73 -4 76 -27 76 -25 0
-25 -1 -25 -85z"/>
<path d="M16420 2265 l0 -105 25 0 25 0 0 105 0 105 -25 0 -25 0 0 -105z"/>
<path d="M16530 2285 c0 -72 3 -88 20 -105 24 -24 54 -25 93 -6 23 13 27 13
27 0 0 -8 10 -14 25 -14 l25 0 0 105 0 105 -30 0 -29 0 -3 -76 c-2 -60 -7 -79
-20 -88 -13 -8 -23 -8 -35 0 -14 9 -19 28 -21 88 -3 73 -4 76 -27 76 -25 0
-25 -1 -25 -85z"/>
<path d="M16943 2360 c-12 -5 -26 -18 -32 -28 -9 -17 -7 -20 14 -25 16 -3 29
1 34 10 12 22 56 13 56 -11 0 -15 -11 -23 -46 -31 -63 -16 -69 -21 -69 -55 0
-51 62 -77 107 -45 19 13 22 13 27 0 3 -8 16 -15 28 -15 23 0 23 1 17 86 -5
75 -9 90 -28 105 -24 20 -71 24 -108 9z m77 -125 c0 -18 -7 -26 -24 -31 -46
-11 -66 29 -23 46 36 15 47 11 47 -15z"/>
<path d="M17413 2360 c-12 -5 -26 -18 -32 -28 -9 -17 -7 -20 14 -25 16 -3 29
1 34 10 12 22 56 13 56 -11 0 -15 -11 -23 -46 -31 -63 -16 -69 -21 -69 -55 0
-51 62 -77 107 -45 19 13 22 13 27 0 3 -8 16 -15 28 -15 23 0 23 1 17 86 -5
75 -9 90 -28 105 -24 20 -71 24 -108 9z m77 -125 c0 -18 -7 -26 -24 -31 -46
-11 -66 29 -23 46 36 15 47 11 47 -15z"/>
<path d="M17600 2190 c0 -25 4 -30 25 -30 21 0 25 5 25 30 0 25 -4 30 -25 30
-21 0 -25 -5 -25 -30z"/>
</g>
</svg>
